<?xml version="1.0" encoding="UTF-8" standalone="no"?>
<!-- Created with Inkscape (http://www.inkscape.org/) -->

<svg
   xmlns:dc="http://purl.org/dc/elements/1.1/"
   xmlns:cc="http://creativecommons.org/ns#"
   xmlns:rdf="http://www.w3.org/1999/02/22-rdf-syntax-ns#"
   xmlns:svg="http://www.w3.org/2000/svg"
   xmlns="http://www.w3.org/2000/svg"
   xmlns:sodipodi="http://sodipodi.sourceforge.net/DTD/sodipodi-0.dtd"
   xmlns:inkscape="http://www.inkscape.org/namespaces/inkscape"
   id="svg2"
   version="1.1"
   inkscape:version="0.91 r13725"
   xml:space="preserve"
   width="568.40027"
   height="227.40842"
   viewBox="0 0 568.40027 227.40841"
   sodipodi:docname="bettertable.svg"
   inkscape:export-filename="C:\Users\skais\Documents\GitHub\crazy4pi314.github.io\research\talks\thesis_defense\figures\results-table.png"
   inkscape:export-xdpi="300"
   inkscape:export-ydpi="300"><metadata
     id="metadata8"><rdf:RDF><cc:Work
         rdf:about=""><dc:format>image/svg+xml</dc:format><dc:type
           rdf:resource="http://purl.org/dc/dcmitype/StillImage" /><dc:title></dc:title></cc:Work></rdf:RDF></metadata><defs
     id="defs6" /><sodipodi:namedview
     pagecolor="#ffffff"
     bordercolor="#666666"
     borderopacity="1"
     objecttolerance="10"
     gridtolerance="10"
     guidetolerance="10"
     inkscape:pageopacity="0"
     inkscape:pageshadow="2"
     inkscape:window-width="1280"
     inkscape:window-height="667"
     id="namedview4"
     showgrid="false"
     fit-margin-top="0"
     fit-margin-left="0"
     fit-margin-right="0"
     fit-margin-bottom="0"
     inkscape:zoom="1.3485026"
     inkscape:cx="330.40254"
     inkscape:cy="109.59594"
     inkscape:window-x="-8"
     inkscape:window-y="-8"
     inkscape:window-maximized="1"
     inkscape:current-layer="g10" /><g
     id="g10"
     inkscape:groupmode="layer"
     inkscape:label="bettertable"
     transform="matrix(1.25,0,0,-1.25,-101.25,835.40019)"><path
       inkscape:connector-curvature="0"
       id="path22"
       style="fill:none;stroke:#ffffff;stroke-width:0.43873927;stroke-linecap:butt;stroke-linejoin:miter;stroke-miterlimit:10;stroke-dasharray:none;stroke-opacity:1"
       d="m 148.23294,652.28633 0,16.03383" /><text
       id="text26"
       style="font-variant:normal;font-weight:normal;font-size:12.84799958px;font-family:'Palatino Linotype';-inkscape-font-specification:'Palatino Linotype, Normal';writing-mode:lr;fill:#ffffff;fill-opacity:1;fill-rule:nonzero;stroke:none;font-style:normal;font-stretch:normal;text-anchor:start;text-align:start;line-height:125%;"
       transform="scale(1,-1)"
       x="180.28735"
       y="-657.1731"
       sodipodi:linespacing="125%"><tspan
         id="tspan28"
         sodipodi:role="line"
         y="-657.1731"
         x="180.28735 188.35023 194.80264 201.97198 209.14131 214.52097 225.98663 231.07634 234.66101 239.67955">Launchsite</tspan></text>
<g
       transform="matrix(1.10236,0,0,1.10236,277.46921,652.28633)"
       id="g30"
       style=""><path
         inkscape:connector-curvature="0"
         id="path32"
         style="fill:none;stroke:#ffffff;stroke-width:0.398;stroke-linecap:butt;stroke-linejoin:miter;stroke-miterlimit:10;stroke-dasharray:none;stroke-opacity:1"
         d="M 0,0 0,14.545" /></g><text
       id="text34"
       style="font-variant:normal;font-weight:normal;font-size:12.84799958px;font-family:'Palatino Linotype';-inkscape-font-specification:'Palatino Linotype, Normal';writing-mode:lr;fill:#ffffff;fill-opacity:1;fill-rule:nonzero;stroke:none;font-style:normal;font-stretch:normal;text-anchor:start;text-align:start;line-height:125%;"
       transform="scale(1,-1)"
       x="290.79453"
       y="-657.1731"
       sodipodi:linespacing="125%"><tspan
         id="tspan36"
         sodipodi:role="line"
         y="-657.1731"
         x="290.79453 300.46786 304.05255 309.14224 316.31158 322.76401 326.34866 329.93335 341.04056 348.20987 353.22842 358.9639 366.13324 369.7179 375.45337 380.47192 386.2074">Visuallypredicted</tspan></text>
<g
       transform="matrix(1.10236,0,0,1.10236,406.70439,652.28633)"
       id="g38"
       style=""><path
         inkscape:connector-curvature="0"
         id="path40"
         style="fill:none;stroke:#ffffff;stroke-width:0.398;stroke-linecap:butt;stroke-linejoin:miter;stroke-miterlimit:10;stroke-dasharray:none;stroke-opacity:1"
         d="M 0,0 0,14.545" /></g><text
       id="text42"
       style="font-variant:normal;font-weight:normal;font-size:12.84799958px;font-family:'Palatino Linotype';-inkscape-font-specification:'Palatino Linotype, Normal';writing-mode:lr;fill:#ffffff;fill-opacity:1;fill-rule:nonzero;stroke:none;font-style:normal;font-stretch:normal;text-anchor:start;text-align:start;line-height:125%;"
       transform="scale(1,-1)"
       x="413.79147"
       y="-657.1731"
       sodipodi:linespacing="125%"><tspan
         id="tspan44"
         sodipodi:role="line"
         y="-657.1731"
         x="413.79147 423.82852 431.3537 437.08917 442.10773 448.56012 453.57867 457.16333 463.61575 470.78506 477.23749 485.1185 491.57089 495.15558 500.1741 503.75876 508.77731 515.94666 523.11597">Operationalaltitude</tspan></text>
<g
       transform="matrix(1.10236,0,0,1.10236,81,652.06586)"
       id="g46"
       style=""><path
         inkscape:connector-curvature="0"
         id="path48"
         style="fill:none;stroke:#ffffff;stroke-width:0.398;stroke-linecap:butt;stroke-linejoin:miter;stroke-miterlimit:10;stroke-dasharray:none;stroke-opacity:1"
         d="M 0,0 412.497,0" /></g><text
       id="text50"
       style="font-variant:normal;font-weight:normal;font-size:12.84799958px;font-family:'Palatino Linotype';-inkscape-font-specification:'Palatino Linotype, Normal';writing-mode:lr;fill:#ffffff;fill-opacity:1;fill-rule:nonzero;stroke:none;font-style:normal;font-stretch:normal;text-anchor:start;text-align:start;line-height:125%;"
       transform="scale(1,-1)"
       x="87.589905"
       y="-640.58917"
       sodipodi:linespacing="125%"><tspan
         id="tspan52"
         sodipodi:role="line"
         y="-640.58917"
         x="87.589905 97.263245 100.84792 111.24609 118.41544 125.58478 134.97081">Nimbus1</tspan></text>
<g
       transform="matrix(1.10236,0,0,1.10236,148.23294,635.81266)"
       id="g54"
       style=""><path
         inkscape:connector-curvature="0"
         id="path56"
         style="fill:none;stroke:#ffffff;stroke-width:0.398;stroke-linecap:butt;stroke-linejoin:miter;stroke-miterlimit:10;stroke-dasharray:none;stroke-opacity:1"
         d="M 0,0 0,14.545" /></g><g
       transform="matrix(1.10236,0,0,1.10236,148.45231,635.81266)"
       id="g58"
       style=""><path
         inkscape:connector-curvature="0"
         id="path60"
         style="fill:#cc79a7;fill-opacity:1;fill-rule:nonzero;stroke:none"
         d="m 0,0 116.837,0 0,14.545 L 0,14.545 0,0 Z" /></g><g
       transform="matrix(1.10236,0,0,1.10236,277.46921,635.81266)"
       id="g62"
       style=""><path
         inkscape:connector-curvature="0"
         id="path64"
         style="fill:none;stroke:#ffffff;stroke-width:0.398;stroke-linecap:butt;stroke-linejoin:miter;stroke-miterlimit:10;stroke-dasharray:none;stroke-opacity:1"
         d="M 0,0 0,14.545" /></g><g
       transform="matrix(1.10236,0,0,1.10236,277.68858,635.81266)"
       id="g66"
       style=""><path
         inkscape:connector-curvature="0"
         id="path68"
         style="fill:#cc79a7;fill-opacity:1;fill-rule:nonzero;stroke:none"
         d="m 0,0 116.837,0 0,14.545 L 0,14.545 0,0 Z" /></g><g
       transform="matrix(1.10236,0,0,1.10236,406.70439,635.81266)"
       id="g70"
       style=""><path
         inkscape:connector-curvature="0"
         id="path72"
         style="fill:none;stroke:#ffffff;stroke-width:0.398;stroke-linecap:butt;stroke-linejoin:miter;stroke-miterlimit:10;stroke-dasharray:none;stroke-opacity:1"
         d="M 0,0 0,14.545" /></g><g
       transform="matrix(1.10236,0,0,1.10236,406.92376,635.81266)"
       id="g74"
       style=""><path
         inkscape:connector-curvature="0"
         id="path76"
         style="fill:#cc79a7;fill-opacity:1;fill-rule:nonzero;stroke:none"
         d="m 0,0 116.837,0 0,14.545 L 0,14.545 0,0 Z" /></g><g
       transform="matrix(1.10236,0,0,1.10236,81,635.59219)"
       id="g78"
       style=""><path
         inkscape:connector-curvature="0"
         id="path80"
         style="fill:none;stroke:#ffffff;stroke-width:0.398;stroke-linecap:butt;stroke-linejoin:miter;stroke-miterlimit:10;stroke-dasharray:none;stroke-opacity:1"
         d="M 0,0 412.497,0" /></g><text
       id="text82"
       style="font-variant:normal;font-weight:normal;font-size:12.84799958px;font-family:'Palatino Linotype';-inkscape-font-specification:'Palatino Linotype, Normal';writing-mode:lr;fill:#ffffff;fill-opacity:1;fill-rule:nonzero;stroke:none;font-style:normal;font-stretch:normal;text-anchor:start;text-align:start;line-height:125%;"
       transform="scale(1,-1)"
       x="87.589905"
       y="-624.11554"
       sodipodi:linespacing="125%"><tspan
         id="tspan84"
         sodipodi:role="line"
         y="-624.11554"
         x="87.589905 97.263245 100.84792 111.24609 118.41544 125.58478 134.97081">Nimbus2</tspan></text>
<g
       transform="matrix(1.10236,0,0,1.10236,148.23294,619.33899)"
       id="g86"
       style=""><path
         inkscape:connector-curvature="0"
         id="path88"
         style="fill:none;stroke:#ffffff;stroke-width:0.398;stroke-linecap:butt;stroke-linejoin:miter;stroke-miterlimit:10;stroke-dasharray:none;stroke-opacity:1"
         d="M 0,0 0,14.545" /></g><g
       transform="matrix(1.10236,0,0,1.10236,148.45231,619.33899)"
       id="g90"
       style=""><path
         inkscape:connector-curvature="0"
         id="path92"
         style="fill:#d55e00;fill-opacity:1;fill-rule:nonzero;stroke:none"
         d="m 0,0 116.837,0 0,14.545 L 0,14.545 0,0 Z" /></g><g
       transform="matrix(1.10236,0,0,1.10236,277.46921,619.33899)"
       id="g94"
       style=""><path
         inkscape:connector-curvature="0"
         id="path96"
         style="fill:none;stroke:#ffffff;stroke-width:0.398;stroke-linecap:butt;stroke-linejoin:miter;stroke-miterlimit:10;stroke-dasharray:none;stroke-opacity:1"
         d="M 0,0 0,14.545" /></g><g
       transform="matrix(1.10236,0,0,1.10236,277.68858,619.33899)"
       id="g98"
       style=""><path
         inkscape:connector-curvature="0"
         id="path100"
         style="fill:#f0e442;fill-opacity:1;fill-rule:nonzero;stroke:none"
         d="m 0,0 116.837,0 0,14.545 L 0,14.545 0,0 Z" /></g><g
       transform="matrix(1.10236,0,0,1.10236,406.70439,619.33899)"
       id="g102"
       style=""><path
         inkscape:connector-curvature="0"
         id="path104"
         style="fill:none;stroke:#ffffff;stroke-width:0.398;stroke-linecap:butt;stroke-linejoin:miter;stroke-miterlimit:10;stroke-dasharray:none;stroke-opacity:1"
         d="M 0,0 0,14.545" /></g><g
       transform="matrix(1.10236,0,0,1.10236,406.92376,619.33899)"
       id="g106"
       style=""><path
         inkscape:connector-curvature="0"
         id="path108"
         style="fill:#f0e442;fill-opacity:1;fill-rule:nonzero;stroke:none"
         d="m 0,0 116.837,0 0,14.545 L 0,14.545 0,0 Z" /></g><g
       transform="matrix(1.10236,0,0,1.10236,81,619.11852)"
       id="g110"
       style=""><path
         inkscape:connector-curvature="0"
         id="path112"
         style="fill:none;stroke:#ffffff;stroke-width:0.398;stroke-linecap:butt;stroke-linejoin:miter;stroke-miterlimit:10;stroke-dasharray:none;stroke-opacity:1"
         d="M 0,0 412.497,0" /></g><text
       id="text114"
       style="font-variant:normal;font-weight:normal;font-size:12.84799958px;font-family:'Palatino Linotype';-inkscape-font-specification:'Palatino Linotype, Normal';writing-mode:lr;fill:#ffffff;fill-opacity:1;fill-rule:nonzero;stroke:none;font-style:normal;font-stretch:normal;text-anchor:start;text-align:start;line-height:125%;"
       transform="scale(1,-1)"
       x="87.589905"
       y="-607.64185"
       sodipodi:linespacing="125%"><tspan
         id="tspan116"
         sodipodi:role="line"
         y="-607.64185"
         x="87.589905 97.263245 100.84792 111.24609 118.41544 125.58478 134.97081">Nimbus3</tspan></text>
<g
       transform="matrix(1.10236,0,0,1.10236,148.23294,602.86532)"
       id="g118"
       style=""><path
         inkscape:connector-curvature="0"
         id="path120"
         style="fill:none;stroke:#ffffff;stroke-width:0.398;stroke-linecap:butt;stroke-linejoin:miter;stroke-miterlimit:10;stroke-dasharray:none;stroke-opacity:1"
         d="M 0,0 0,14.545" /></g><g
       transform="matrix(1.10236,0,0,1.10236,148.45231,602.86532)"
       id="g122"
       style=""><path
         inkscape:connector-curvature="0"
         id="path124"
         style="fill:#d55e00;fill-opacity:1;fill-rule:nonzero;stroke:none"
         d="m 0,0 116.837,0 0,14.545 L 0,14.545 0,0 Z" /></g><g
       transform="matrix(1.10236,0,0,1.10236,277.46921,602.86532)"
       id="g126"
       style=""><path
         inkscape:connector-curvature="0"
         id="path128"
         style="fill:none;stroke:#ffffff;stroke-width:0.398;stroke-linecap:butt;stroke-linejoin:miter;stroke-miterlimit:10;stroke-dasharray:none;stroke-opacity:1"
         d="M 0,0 0,14.545" /></g><g
       transform="matrix(1.10236,0,0,1.10236,277.68858,602.86532)"
       id="g130"
       style=""><path
         inkscape:connector-curvature="0"
         id="path132"
         style="fill:#f0e442;fill-opacity:1;fill-rule:nonzero;stroke:none"
         d="m 0,0 116.837,0 0,14.545 L 0,14.545 0,0 Z" /></g><g
       transform="matrix(1.10236,0,0,1.10236,406.70439,602.86532)"
       id="g134"
       style=""><path
         inkscape:connector-curvature="0"
         id="path136"
         style="fill:none;stroke:#ffffff;stroke-width:0.398;stroke-linecap:butt;stroke-linejoin:miter;stroke-miterlimit:10;stroke-dasharray:none;stroke-opacity:1"
         d="M 0,0 0,14.545" /></g><g
       transform="matrix(1.10236,0,0,1.10236,406.92376,602.86532)"
       id="g138"
       style=""><path
         inkscape:connector-curvature="0"
         id="path140"
         style="fill:#56b4e9;fill-opacity:1;fill-rule:nonzero;stroke:none"
         d="m 0,0 116.837,0 0,14.545 L 0,14.545 0,0 Z" /></g><g
       transform="matrix(1.10236,0,0,1.10236,81,602.64485)"
       id="g142"
       style=""><path
         inkscape:connector-curvature="0"
         id="path144"
         style="fill:none;stroke:#ffffff;stroke-width:0.398;stroke-linecap:butt;stroke-linejoin:miter;stroke-miterlimit:10;stroke-dasharray:none;stroke-opacity:1"
         d="M 0,0 412.497,0" /></g><text
       id="text146"
       style="font-variant:normal;font-weight:normal;font-size:12.84799958px;font-family:'Palatino Linotype';-inkscape-font-specification:'Palatino Linotype, Normal';writing-mode:lr;fill:#ffffff;fill-opacity:1;fill-rule:nonzero;stroke:none;font-style:normal;font-stretch:normal;text-anchor:start;text-align:start;line-height:125%;"
       transform="scale(1,-1)"
       x="87.589905"
       y="-591.16815"
       sodipodi:linespacing="125%"><tspan
         id="tspan148"
         sodipodi:role="line"
         y="-591.16815"
         x="87.589905 97.263245 100.84792 111.24609 118.41544 125.58478 134.97081">Nimbus4</tspan></text>
<g
       transform="matrix(1.10236,0,0,1.10236,148.23294,586.39166)"
       id="g150"
       style=""><path
         inkscape:connector-curvature="0"
         id="path152"
         style="fill:none;stroke:#ffffff;stroke-width:0.398;stroke-linecap:butt;stroke-linejoin:miter;stroke-miterlimit:10;stroke-dasharray:none;stroke-opacity:1"
         d="M 0,0 0,14.545" /></g><g
       transform="matrix(1.10236,0,0,1.10236,148.45231,586.39166)"
       id="g154"
       style=""><path
         inkscape:connector-curvature="0"
         id="path156"
         style="fill:#cc79a7;fill-opacity:1;fill-rule:nonzero;stroke:none"
         d="m 0,0 116.837,0 0,14.545 L 0,14.545 0,0 Z" /></g><g
       transform="matrix(1.10236,0,0,1.10236,277.46921,586.39166)"
       id="g158"
       style=""><path
         inkscape:connector-curvature="0"
         id="path160"
         style="fill:none;stroke:#ffffff;stroke-width:0.398;stroke-linecap:butt;stroke-linejoin:miter;stroke-miterlimit:10;stroke-dasharray:none;stroke-opacity:1"
         d="M 0,0 0,14.545" /></g><g
       transform="matrix(1.10236,0,0,1.10236,277.68858,586.39166)"
       id="g162"
       style=""><path
         inkscape:connector-curvature="0"
         id="path164"
         style="fill:#f0e442;fill-opacity:1;fill-rule:nonzero;stroke:none"
         d="m 0,0 116.837,0 0,14.545 L 0,14.545 0,0 Z" /></g><g
       transform="matrix(1.10236,0,0,1.10236,406.70439,586.39166)"
       id="g166"
       style=""><path
         inkscape:connector-curvature="0"
         id="path168"
         style="fill:none;stroke:#ffffff;stroke-width:0.398;stroke-linecap:butt;stroke-linejoin:miter;stroke-miterlimit:10;stroke-dasharray:none;stroke-opacity:1"
         d="M 0,0 0,14.545" /></g><g
       transform="matrix(1.10236,0,0,1.10236,406.92376,586.39166)"
       id="g170"
       style=""><path
         inkscape:connector-curvature="0"
         id="path172"
         style="fill:#56b4e9;fill-opacity:1;fill-rule:nonzero;stroke:none"
         d="m 0,0 116.837,0 0,14.545 L 0,14.545 0,0 Z" /></g><g
       transform="matrix(1.10236,0,0,1.10236,81,586.17118)"
       id="g174"
       style=""><path
         inkscape:connector-curvature="0"
         id="path176"
         style="fill:none;stroke:#ffffff;stroke-width:0.398;stroke-linecap:butt;stroke-linejoin:miter;stroke-miterlimit:10;stroke-dasharray:none;stroke-opacity:1"
         d="M 0,0 412.497,0" /></g><text
       id="text178"
       style="font-variant:normal;font-weight:normal;font-size:12.84799958px;font-family:'Palatino Linotype';-inkscape-font-specification:'Palatino Linotype, Normal';writing-mode:lr;fill:#ffffff;fill-opacity:1;fill-rule:nonzero;stroke:none;font-style:normal;font-stretch:normal;text-anchor:start;text-align:start;line-height:125%;"
       transform="scale(1,-1)"
       x="87.589905"
       y="-574.69452"
       sodipodi:linespacing="125%"><tspan
         id="tspan180"
         sodipodi:role="line"
         y="-574.69452"
         x="87.589905 97.263245 100.84792 111.24609 118.41544 125.58478 134.97081">Nimbus5</tspan></text>
<g
       transform="matrix(1.10236,0,0,1.10236,148.23294,569.91799)"
       id="g182"
       style=""><path
         inkscape:connector-curvature="0"
         id="path184"
         style="fill:none;stroke:#ffffff;stroke-width:0.398;stroke-linecap:butt;stroke-linejoin:miter;stroke-miterlimit:10;stroke-dasharray:none;stroke-opacity:1"
         d="M 0,0 0,14.545" /></g><g
       transform="matrix(1.10236,0,0,1.10236,148.45231,569.91799)"
       id="g186"
       style=""><path
         inkscape:connector-curvature="0"
         id="path188"
         style="fill:#cc79a7;fill-opacity:1;fill-rule:nonzero;stroke:none"
         d="m 0,0 116.837,0 0,14.545 L 0,14.545 0,0 Z" /></g><g
       transform="matrix(1.10236,0,0,1.10236,277.46921,569.91799)"
       id="g190"
       style=""><path
         inkscape:connector-curvature="0"
         id="path192"
         style="fill:none;stroke:#ffffff;stroke-width:0.398;stroke-linecap:butt;stroke-linejoin:miter;stroke-miterlimit:10;stroke-dasharray:none;stroke-opacity:1"
         d="M 0,0 0,14.545" /></g><g
       transform="matrix(1.10236,0,0,1.10236,277.68858,569.91799)"
       id="g194"
       style=""><path
         inkscape:connector-curvature="0"
         id="path196"
         style="fill:#f0e442;fill-opacity:1;fill-rule:nonzero;stroke:none"
         d="m 0,0 116.837,0 0,14.545 L 0,14.545 0,0 Z" /></g><g
       transform="matrix(1.10236,0,0,1.10236,406.70439,569.91799)"
       id="g198"
       style=""><path
         inkscape:connector-curvature="0"
         id="path200"
         style="fill:none;stroke:#ffffff;stroke-width:0.398;stroke-linecap:butt;stroke-linejoin:miter;stroke-miterlimit:10;stroke-dasharray:none;stroke-opacity:1"
         d="M 0,0 0,14.545" /></g><g
       transform="matrix(1.10236,0,0,1.10236,406.92376,569.91799)"
       id="g202"
       style=""><path
         inkscape:connector-curvature="0"
         id="path204"
         style="fill:#56b4e9;fill-opacity:1;fill-rule:nonzero;stroke:none"
         d="m 0,0 116.837,0 0,14.545 L 0,14.545 0,0 Z" /></g><g
       transform="matrix(1.10236,0,0,1.10236,81,569.69752)"
       id="g206"
       style=""><path
         inkscape:connector-curvature="0"
         id="path208"
         style="fill:none;stroke:#ffffff;stroke-width:0.398;stroke-linecap:butt;stroke-linejoin:miter;stroke-miterlimit:10;stroke-dasharray:none;stroke-opacity:1"
         d="M 0,0 412.497,0" /></g><text
       id="text210"
       style="font-variant:normal;font-weight:normal;font-size:12.84799958px;font-family:'Palatino Linotype';-inkscape-font-specification:'Palatino Linotype, Normal';writing-mode:lr;fill:#ffffff;fill-opacity:1;fill-rule:nonzero;stroke:none;font-style:normal;font-stretch:normal;text-anchor:start;text-align:start;line-height:125%;"
       transform="scale(1,-1)"
       x="87.589905"
       y="-558.22083"
       sodipodi:linespacing="125%"><tspan
         id="tspan212"
         sodipodi:role="line"
         y="-558.22083"
         x="87.589905 97.263245 100.84792 111.24609 118.41544 125.58478 134.97081">Nimbus6</tspan></text>
<g
       transform="matrix(1.10236,0,0,1.10236,148.23294,553.44432)"
       id="g214"
       style=""><path
         inkscape:connector-curvature="0"
         id="path216"
         style="fill:none;stroke:#ffffff;stroke-width:0.398;stroke-linecap:butt;stroke-linejoin:miter;stroke-miterlimit:10;stroke-dasharray:none;stroke-opacity:1"
         d="M 0,0 0,14.545" /></g><g
       transform="matrix(1.10236,0,0,1.10236,148.45231,553.44432)"
       id="g218"
       style=""><path
         inkscape:connector-curvature="0"
         id="path220"
         style="fill:#cc79a7;fill-opacity:1;fill-rule:nonzero;stroke:none"
         d="m 0,0 116.837,0 0,14.545 L 0,14.545 0,0 Z" /></g><g
       transform="matrix(1.10236,0,0,1.10236,277.46921,553.44432)"
       id="g222"
       style=""><path
         inkscape:connector-curvature="0"
         id="path224"
         style="fill:none;stroke:#ffffff;stroke-width:0.398;stroke-linecap:butt;stroke-linejoin:miter;stroke-miterlimit:10;stroke-dasharray:none;stroke-opacity:1"
         d="M 0,0 0,14.545" /></g><g
       transform="matrix(1.10236,0,0,1.10236,277.68858,553.44432)"
       id="g226"
       style=""><path
         inkscape:connector-curvature="0"
         id="path228"
         style="fill:#cc79a7;fill-opacity:1;fill-rule:nonzero;stroke:none"
         d="m 0,0 116.837,0 0,14.545 L 0,14.545 0,0 Z" /></g><g
       transform="matrix(1.10236,0,0,1.10236,406.70439,553.44432)"
       id="g230"
       style=""><path
         inkscape:connector-curvature="0"
         id="path232"
         style="fill:none;stroke:#ffffff;stroke-width:0.398;stroke-linecap:butt;stroke-linejoin:miter;stroke-miterlimit:10;stroke-dasharray:none;stroke-opacity:1"
         d="M 0,0 0,14.545" /></g><g
       transform="matrix(1.10236,0,0,1.10236,406.92376,553.44432)"
       id="g234"
       style=""><path
         inkscape:connector-curvature="0"
         id="path236"
         style="fill:#cc79a7;fill-opacity:1;fill-rule:nonzero;stroke:none"
         d="m 0,0 116.837,0 0,14.545 L 0,14.545 0,0 Z" /></g><g
       transform="matrix(1.10236,0,0,1.10236,81,553.22385)"
       id="g238"
       style=""><path
         inkscape:connector-curvature="0"
         id="path240"
         style="fill:none;stroke:#ffffff;stroke-width:0.398;stroke-linecap:butt;stroke-linejoin:miter;stroke-miterlimit:10;stroke-dasharray:none;stroke-opacity:1"
         d="M 0,0 412.497,0" /></g><text
       id="text242"
       style="font-variant:normal;font-weight:normal;font-size:12.84799958px;font-family:'Palatino Linotype';-inkscape-font-specification:'Palatino Linotype, Normal';writing-mode:lr;fill:#ffffff;fill-opacity:1;fill-rule:nonzero;stroke:none;font-style:normal;font-stretch:normal;text-anchor:start;text-align:start;line-height:125%;"
       transform="scale(1,-1)"
       x="87.589905"
       y="-541.74719"
       sodipodi:linespacing="125%"><tspan
         id="tspan244"
         sodipodi:role="line"
         y="-541.74719"
         x="87.589905 97.263245 100.84792 111.24609 118.41544 125.58478 134.97081">Nimbus7</tspan></text>
<g
       transform="matrix(1.10236,0,0,1.10236,148.23294,536.97065)"
       id="g246"
       style=""><path
         inkscape:connector-curvature="0"
         id="path248"
         style="fill:none;stroke:#ffffff;stroke-width:0.398;stroke-linecap:butt;stroke-linejoin:miter;stroke-miterlimit:10;stroke-dasharray:none;stroke-opacity:1"
         d="M 0,0 0,14.545" /></g><g
       transform="matrix(1.10236,0,0,1.10236,148.45231,536.97065)"
       id="g250"
       style=""><path
         inkscape:connector-curvature="0"
         id="path252"
         style="fill:#cc79a7;fill-opacity:1;fill-rule:nonzero;stroke:none"
         d="m 0,0 116.837,0 0,14.545 L 0,14.545 0,0 Z" /></g><g
       transform="matrix(1.10236,0,0,1.10236,277.46921,536.97065)"
       id="g254"
       style=""><path
         inkscape:connector-curvature="0"
         id="path256"
         style="fill:none;stroke:#ffffff;stroke-width:0.398;stroke-linecap:butt;stroke-linejoin:miter;stroke-miterlimit:10;stroke-dasharray:none;stroke-opacity:1"
         d="M 0,0 0,14.545" /></g><g
       transform="matrix(1.10236,0,0,1.10236,277.68858,536.97065)"
       id="g258"
       style=""><path
         inkscape:connector-curvature="0"
         id="path260"
         style="fill:#cc79a7;fill-opacity:1;fill-rule:nonzero;stroke:none"
         d="m 0,0 116.837,0 0,14.545 L 0,14.545 0,0 Z" /></g><g
       transform="matrix(1.10236,0,0,1.10236,406.70439,536.97065)"
       id="g262"
       style=""><path
         inkscape:connector-curvature="0"
         id="path264"
         style="fill:none;stroke:#ffffff;stroke-width:0.398;stroke-linecap:butt;stroke-linejoin:miter;stroke-miterlimit:10;stroke-dasharray:none;stroke-opacity:1"
         d="M 0,0 0,14.545" /></g><g
       transform="matrix(1.10236,0,0,1.10236,406.92376,536.97065)"
       id="g266"
       style=""><path
         inkscape:connector-curvature="0"
         id="path268"
         style="fill:#56b4e9;fill-opacity:1;fill-rule:nonzero;stroke:none"
         d="m 0,0 116.837,0 0,14.545 L 0,14.545 0,0 Z" /></g><g
       transform="matrix(1.10236,0,0,1.10236,81,599.351)"
       id="g270"
       style="" /><text
       id="text276"
       style="font-variant:normal;font-weight:normal;font-size:12.84799958px;font-family:'Palatino Linotype';-inkscape-font-specification:'Palatino Linotype, Normal';writing-mode:lr;fill:#ffffff;fill-opacity:1;fill-rule:nonzero;stroke:none;font-style:normal;font-stretch:normal;text-anchor:start;text-align:start;line-height:125%;"
       transform="scale(1,-1)"
       x="139.12932"
       y="-521.86407"
       sodipodi:linespacing="125%"><tspan
         id="tspan278"
         sodipodi:role="line"
         y="-521.86407"
         x="139.12932 146.8452 150.2756 157.13641 167.76563 177.19672 184.05753 188.86009 195.03482 199.83739 203.26779 209.44252">LinkDuration</tspan></text>
<g
       transform="matrix(1.05492,0,0,1.05492,242.52836,517.29308)"
       id="g280"
       style=""><path
         inkscape:connector-curvature="0"
         id="path282"
         style="fill:none;stroke:#ffffff;stroke-width:0.398;stroke-linecap:butt;stroke-linejoin:miter;stroke-miterlimit:10;stroke-dasharray:none;stroke-opacity:1"
         d="M 0,0 0,14.545" /></g><g
       transform="matrix(1.05492,0,0,1.05492,242.73935,517.29308)"
       id="g284"
       style=""><path
         inkscape:connector-curvature="0"
         id="path286"
         style="fill:#cc79a7;fill-opacity:1;fill-rule:nonzero;stroke:none"
         d="m 0,0 61.561,0 0,14.545 L 0,14.545 0,0 Z" /></g><text
       id="text288"
       style="font-variant:normal;font-weight:normal;font-size:12.84799958px;font-family:'Palatino Linotype';-inkscape-font-specification:'Palatino Linotype, Normal';writing-mode:lr;fill:#ffffff;fill-opacity:1;fill-rule:nonzero;stroke:none;font-style:normal;font-stretch:normal;text-anchor:start;text-align:start;line-height:125%;"
       transform="scale(1,-1)"
       x="253.21999"
       y="-521.96954"
       sodipodi:linespacing="125%"><tspan
         id="tspan290"
         y="-521.96954"
         x="253.21999"
         style="-inkscape-font-specification:'Palatino Linotype, Normal';font-family:'Palatino Linotype';font-weight:normal;font-style:normal;font-stretch:normal;font-variant:normal;font-size:12.84799958px;text-anchor:start;text-align:start;writing-mode:lr;line-height:125%;">&lt;</tspan></text>
<text
       id="text292"
       style="font-variant:normal;font-weight:normal;font-size:12.84799958px;font-family:'Palatino Linotype';-inkscape-font-specification:'Palatino Linotype, Normal';writing-mode:lr;fill:#ffffff;fill-opacity:1;fill-rule:nonzero;stroke:none;font-style:normal;font-stretch:normal;text-anchor:start;text-align:start;line-height:125%;"
       transform="scale(1,-1)"
       x="266.3284"
       y="-521.96954"
       sodipodi:linespacing="125%"><tspan
         id="tspan294"
         sodipodi:role="line"
         y="-521.96954"
         x="266.3284 276.61456 286.90579 290.33618">5min</tspan></text>
<g
       transform="matrix(1.05492,0,0,1.05492,307.8912,517.29308)"
       id="g296"
       style=""><path
         inkscape:connector-curvature="0"
         id="path298"
         style="fill:none;stroke:#ffffff;stroke-width:0.398;stroke-linecap:butt;stroke-linejoin:miter;stroke-miterlimit:10;stroke-dasharray:none;stroke-opacity:1"
         d="M 0,0 0,14.545" /></g><g
       transform="matrix(1.05492,0,0,1.05492,308.10219,517.29308)"
       id="g300"
       style=""><path
         inkscape:connector-curvature="0"
         id="path302"
         style="fill:#d55e00;fill-opacity:1;fill-rule:nonzero;stroke:none"
         d="m 0,0 61.561,0 0,14.545 L 0,14.545 0,0 Z" /></g><text
       id="text304"
       style="font-variant:normal;font-weight:normal;font-size:12.84799958px;font-family:'Palatino Linotype';-inkscape-font-specification:'Palatino Linotype, Normal';writing-mode:lr;fill:#ffffff;fill-opacity:1;fill-rule:nonzero;stroke:none;font-style:normal;font-stretch:normal;text-anchor:start;text-align:start;line-height:125%;"
       transform="scale(1,-1)"
       x="315.49612"
       y="-521.96954"
       sodipodi:linespacing="125%"><tspan
         id="tspan306"
         y="-521.96954"
         x="315.49612"
         style="-inkscape-font-specification:'Palatino Linotype, Normal';font-family:'Palatino Linotype';font-weight:normal;font-style:normal;font-stretch:normal;font-variant:normal;font-size:12.84799958px;text-anchor:start;text-align:start;writing-mode:lr;line-height:125%;">&lt;</tspan></text>
<text
       id="text308"
       style="font-variant:normal;font-weight:normal;font-size:12.84799958px;font-family:'Palatino Linotype';-inkscape-font-specification:'Palatino Linotype, Normal';writing-mode:lr;fill:#ffffff;fill-opacity:1;fill-rule:nonzero;stroke:none;font-style:normal;font-stretch:normal;text-anchor:start;text-align:start;line-height:125%;"
       transform="scale(1,-1)"
       x="328.60349"
       y="-521.96954"
       sodipodi:linespacing="125%"><tspan
         id="tspan310"
         sodipodi:role="line"
         y="-521.96954"
         x="328.60349 334.77823 345.06439 355.35562 358.78601">30min</tspan></text>
<g
       transform="matrix(1.05492,0,0,1.05492,373.25405,517.29308)"
       id="g312"
       style=""><path
         inkscape:connector-curvature="0"
         id="path314"
         style="fill:none;stroke:#ffffff;stroke-width:0.398;stroke-linecap:butt;stroke-linejoin:miter;stroke-miterlimit:10;stroke-dasharray:none;stroke-opacity:1"
         d="M 0,0 0,14.545" /></g><g
       transform="matrix(1.05492,0,0,1.05492,373.46503,517.29308)"
       id="g316"
       style=""><path
         inkscape:connector-curvature="0"
         id="path318"
         style="fill:#f0e442;fill-opacity:1;fill-rule:nonzero;stroke:none"
         d="m 0,0 61.561,0 0,14.545 L 0,14.545 0,0 Z" /></g><text
       id="text320"
       style="font-variant:normal;font-weight:normal;font-size:12.84799958px;font-family:'Palatino Linotype';-inkscape-font-specification:'Palatino Linotype, Normal';writing-mode:lr;fill:#ffffff;fill-opacity:1;fill-rule:nonzero;stroke:none;font-style:normal;font-stretch:normal;text-anchor:start;text-align:start;line-height:125%;"
       transform="scale(1,-1)"
       x="380.85898"
       y="-521.96954"
       sodipodi:linespacing="125%"><tspan
         id="tspan322"
         y="-521.96954"
         x="380.85898"
         style="-inkscape-font-specification:'Palatino Linotype, Normal';font-family:'Palatino Linotype';font-weight:normal;font-style:normal;font-stretch:normal;font-variant:normal;font-size:12.84799958px;text-anchor:start;text-align:start;writing-mode:lr;line-height:125%;">&gt;</tspan></text>
<text
       id="text324"
       style="font-variant:normal;font-weight:normal;font-size:12.84799958px;font-family:'Palatino Linotype';-inkscape-font-specification:'Palatino Linotype, Normal';writing-mode:lr;fill:#ffffff;fill-opacity:1;fill-rule:nonzero;stroke:none;font-style:normal;font-stretch:normal;text-anchor:start;text-align:start;line-height:125%;"
       transform="scale(1,-1)"
       x="393.96634"
       y="-521.96954"
       sodipodi:linespacing="125%"><tspan
         id="tspan326"
         sodipodi:role="line"
         y="-521.96954"
         x="393.96634 400.14108 410.42725 420.71844 424.14886">30min</tspan></text>
<g
       transform="matrix(1.05492,0,0,1.05492,438.61689,517.29308)"
       id="g328"
       style=""><path
         inkscape:connector-curvature="0"
         id="path330"
         style="fill:none;stroke:#ffffff;stroke-width:0.398;stroke-linecap:butt;stroke-linejoin:miter;stroke-miterlimit:10;stroke-dasharray:none;stroke-opacity:1"
         d="M 0,0 0,14.545" /></g><g
       transform="matrix(1.05492,0,0,1.05492,438.82788,517.29308)"
       id="g332"
       style=""><path
         inkscape:connector-curvature="0"
         id="path334"
         style="fill:#56b4e9;fill-opacity:1;fill-rule:nonzero;stroke:none"
         d="m 0,0 61.561,0 0,14.545 L 0,14.545 0,0 Z" /></g><text
       id="text336"
       style="font-variant:normal;font-weight:normal;font-size:12.84799958px;font-family:'Palatino Linotype';-inkscape-font-specification:'Palatino Linotype, Normal';writing-mode:lr;fill:#ffffff;fill-opacity:1;fill-rule:nonzero;stroke:none;font-style:normal;font-stretch:normal;text-anchor:start;text-align:start;line-height:125%;"
       transform="scale(1,-1)"
       x="456.16864"
       y="-521.96954"
       sodipodi:linespacing="125%"><tspan
         id="tspan338"
         y="-521.96954"
         x="456.16864"
         style="-inkscape-font-specification:'Palatino Linotype, Normal';font-family:'Palatino Linotype';font-weight:normal;font-style:normal;font-stretch:normal;font-variant:normal;font-size:12.84799958px;text-anchor:start;text-align:start;writing-mode:lr;line-height:125%;">&gt;</tspan></text>
<text
       id="text340"
       style="font-variant:normal;font-weight:normal;font-size:12.84799958px;font-family:'Palatino Linotype';-inkscape-font-specification:'Palatino Linotype, Normal';writing-mode:lr;fill:#ffffff;fill-opacity:1;fill-rule:nonzero;stroke:none;font-style:normal;font-stretch:normal;text-anchor:start;text-align:start;line-height:125%;"
       transform="scale(1,-1)"
       x="469.2771"
       y="-521.96954"
       sodipodi:linespacing="125%"><tspan
         id="tspan342"
         sodipodi:role="line"
         y="-521.96954"
         x="469.2771 479.56326">1h</tspan></text>
<g
       transform="matrix(1.05492,0,0,1.05492,113.115,517.0821)"
       id="g344"
       style=""><path
         inkscape:connector-curvature="0"
         id="path346"
         style="fill:none;stroke:#ffffff;stroke-width:0.398;stroke-linecap:butt;stroke-linejoin:miter;stroke-miterlimit:10;stroke-dasharray:none;stroke-opacity:1"
         d="M 0,0 370.317,0" /></g><text
       id="text348"
       style="font-variant:normal;font-weight:normal;font-size:12.84799958px;font-family:'Palatino Linotype';-inkscape-font-specification:'Palatino Linotype, Normal';writing-mode:lr;fill:#ffffff;fill-opacity:1;fill-rule:nonzero;stroke:none;font-style:normal;font-stretch:normal;text-anchor:start;text-align:start;line-height:125%;"
       transform="scale(1,-1)"
       x="140.41422"
       y="-506.20483"
       sodipodi:linespacing="125%"><tspan
         id="tspan350"
         sodipodi:role="line"
         y="-506.20483"
         x="140.41422 148.81619 153.61876 159.79347 166.65428 172.82901 179.68982 183.12022 186.55063 189.98103 194.44308 205.0723 211.24702">Probabilityof</tspan><tspan
         id="tspan352"
         sodipodi:role="line"
         y="-490.96545"
         x="119.42131 127.82328 134.34105 141.54237 147.03102 151.83359 155.26399 165.55521 171.04385 177.56413 182.3667 188.54143 196.08327 202.94408 209.80489 215.29353 220.78218 226.27083 231.14149">ExperimentalSuccess</tspan></text>
<g
       transform="matrix(1.05492,0,0,1.05492,242.52836,486.39342)"
       id="g354"
       style=""><path
         inkscape:connector-curvature="0"
         id="path356"
         style="fill:none;stroke:#ffffff;stroke-width:0.398;stroke-linecap:butt;stroke-linejoin:miter;stroke-miterlimit:10;stroke-dasharray:none;stroke-opacity:1"
         d="M 0,0 0,28.892" /></g><g
       transform="matrix(1.05492,0,0,1.05492,242.73935,486.39342)"
       id="g358"
       style=""><path
         inkscape:connector-curvature="0"
         id="path360"
         style="fill:#cc79a7;fill-opacity:1;fill-rule:nonzero;stroke:none"
         d="m 0,0 61.561,0 0,28.892 L 0,28.892 0,0 Z" /></g><text
       id="text362"
       style="font-variant:normal;font-weight:normal;font-size:12.84799958px;font-family:'Palatino Linotype';-inkscape-font-specification:'Palatino Linotype, Normal';writing-mode:lr;fill:#ffffff;fill-opacity:1;fill-rule:nonzero;stroke:none;font-style:normal;font-stretch:normal;text-anchor:start;text-align:start;line-height:125%;"
       transform="scale(1,-1)"
       x="265.17749"
       y="-498.58514"
       sodipodi:linespacing="125%"><tspan
         id="tspan364"
         sodipodi:role="line"
         y="-498.58514"
         x="265.17749 272.20224 278.37698 281.80737">Fail</tspan></text>
<g
       transform="matrix(1.05492,0,0,1.05492,307.8912,486.39342)"
       id="g366"
       style=""><path
         inkscape:connector-curvature="0"
         id="path368"
         style="fill:none;stroke:#ffffff;stroke-width:0.398;stroke-linecap:butt;stroke-linejoin:miter;stroke-miterlimit:10;stroke-dasharray:none;stroke-opacity:1"
         d="M 0,0 0,28.892" /></g><g
       transform="matrix(1.05492,0,0,1.05492,308.10219,486.39342)"
       id="g370"
       style=""><path
         inkscape:connector-curvature="0"
         id="path372"
         style="fill:#d55e00;fill-opacity:1;fill-rule:nonzero;stroke:none"
         d="m 0,0 61.561,0 0,28.892 L 0,28.892 0,0 Z" /></g><text
       id="text374"
       style="font-variant:normal;font-weight:normal;font-size:12.84799958px;font-family:'Palatino Linotype';-inkscape-font-specification:'Palatino Linotype, Normal';writing-mode:lr;fill:#ffffff;fill-opacity:1;fill-rule:nonzero;stroke:none;font-style:normal;font-stretch:normal;text-anchor:start;text-align:start;line-height:125%;"
       transform="scale(1,-1)"
       x="315.8432"
       y="-498.58514"
       sodipodi:linespacing="125%"><tspan
         id="tspan376"
         sodipodi:role="line"
         y="-498.58514"
         x="315.8432 325.10025 328.53064 334.70535 345.67761 350.48019 353.91058 358.78125">Highrisk</tspan></text>
<g
       transform="matrix(1.05492,0,0,1.05492,373.25405,486.39342)"
       id="g378"
       style=""><path
         inkscape:connector-curvature="0"
         id="path380"
         style="fill:none;stroke:#ffffff;stroke-width:0.398;stroke-linecap:butt;stroke-linejoin:miter;stroke-miterlimit:10;stroke-dasharray:none;stroke-opacity:1"
         d="M 0,0 0,28.892" /></g><g
       transform="matrix(1.05492,0,0,1.05492,373.46503,486.39342)"
       id="g382"
       style=""><path
         inkscape:connector-curvature="0"
         id="path384"
         style="fill:#f0e442;fill-opacity:1;fill-rule:nonzero;stroke:none"
         d="m 0,0 61.561,0 0,28.892 L 0,28.892 0,0 Z" /></g><text
       id="text386"
       style="font-variant:normal;font-weight:normal;font-size:12.84799958px;font-family:'Palatino Linotype';-inkscape-font-specification:'Palatino Linotype, Normal';writing-mode:lr;fill:#ffffff;fill-opacity:1;fill-rule:nonzero;stroke:none;font-style:normal;font-stretch:normal;text-anchor:start;text-align:start;line-height:125%;"
       transform="scale(1,-1)"
       x="380.21124"
       y="-506.20483"
       sodipodi:linespacing="125%"><tspan
         id="tspan388"
         sodipodi:role="line"
         y="-506.20483"
         x="380.21124 391.52655 398.04178 404.90259 410.39124 415.19382 421.36853 426.17108">Moderate</tspan><tspan
         id="tspan390"
         sodipodi:role="line"
         y="-490.96545"
         x="396.12576 400.92834 404.35873 409.2294">risk</tspan></text>
<g
       transform="matrix(1.05492,0,0,1.05492,438.61689,486.39342)"
       id="g392"
       style=""><path
         inkscape:connector-curvature="0"
         id="path394"
         style="fill:none;stroke:#ffffff;stroke-width:0.398;stroke-linecap:butt;stroke-linejoin:miter;stroke-miterlimit:10;stroke-dasharray:none;stroke-opacity:1"
         d="M 0,0 0,28.892" /></g><g
       transform="matrix(1.05492,0,0,1.05492,438.82788,486.39342)"
       id="g396"
       style=""><path
         inkscape:connector-curvature="0"
         id="path398"
         style="fill:#56b4e9;fill-opacity:1;fill-rule:nonzero;stroke:none"
         d="m 0,0 61.561,0 0,28.892 L 0,28.892 0,0 Z" /></g><text
       id="text400"
       style="font-variant:normal;font-weight:normal;font-size:12.84799958px;font-family:'Palatino Linotype';-inkscape-font-specification:'Palatino Linotype, Normal';writing-mode:lr;fill:#ffffff;fill-opacity:1;fill-rule:nonzero;stroke:none;font-style:normal;font-stretch:normal;text-anchor:start;text-align:start;line-height:125%;"
       transform="scale(1,-1)"
       x="448.19662"
       y="-498.58514"
       sodipodi:linespacing="125%"><tspan
         id="tspan402"
         sodipodi:role="line"
         y="-498.58514"
         x="448.19662 455.91251 461.7467 474.77719 479.57977 483.01016 487.88086">Lowrisk</tspan></text>
<g
       transform="matrix(1.05492,0,0,1.05492,113.115,506.362)"
       id="g404"
       style="" /></g></svg>