<?xml version="1.0" encoding="iso-8859-1"?>
<!-- Generator: Adobe Illustrator 19.0.0, SVG Export Plug-In . SVG Version: 6.00 Build 0)  -->
<svg version="1.1" id="Capa_1" xmlns="http://www.w3.org/2000/svg" xmlns:xlink="http://www.w3.org/1999/xlink" x="0px" y="0px"
	 viewBox="0 0 512 512" style="enable-background:new 0 0 512 512;" xml:space="preserve">
<linearGradient id="SVGID_1_" gradientUnits="userSpaceOnUse" x1="0" y1="258" x2="512" y2="258" gradientTransform="matrix(1 0 0 -1 0 514)">
	<stop  offset="0" style="stop-color:#80D8FF"/>
	<stop  offset="1" style="stop-color:#EA80FC"/>
</linearGradient>
<path style="fill:url(#SVGID_1_);" d="M374,0c-58.272,0-97.581,28.094-118,47.822C235.581,28.094,196.272,0,138,0
	C57.674,0,0,67.628,0,148.727c0,47.146,20.373,95.862,58.918,140.882c42.121,49.198,105.498,94.476,188.371,134.576
	c2.751,1.331,5.73,1.997,8.711,1.997c2.981,0,5.96-0.666,8.711-1.997c82.873-40.1,146.25-85.378,188.371-134.576
	C491.627,244.589,512,195.873,512,148.727C512,67.679,454.364,0,374,0z M422.697,263.595
	c-37.063,43.29-93.12,83.742-166.697,120.312c-73.577-36.57-129.635-77.022-166.697-120.312C56.588,225.383,40,186.736,40,148.727
	C40,90.396,79.356,40,138,40c27.623,0,52.973,8.146,75.345,24.213c16.681,11.979,25.603,24.248,26.182,25.056
	c3.693,5.49,9.807,8.711,16.427,8.747c0.035,0,0.069,0,0.104,0c6.599,0,12.718-3.342,16.447-8.792C272.841,88.731,306.971,40,374,40
	c58.65,0,98,50.421,98,108.727C472,186.736,455.412,225.383,422.697,263.595z M394,492c0,11.046-8.954,20-20,20H138
	c-11.046,0-20-8.954-20-20s8.954-20,20-20h236C385.046,472,394,480.954,394,492z"/>
<g>
</g>
<g>
</g>
<g>
</g>
<g>
</g>
<g>
</g>
<g>
</g>
<g>
</g>
<g>
</g>
<g>
</g>
<g>
</g>
<g>
</g>
<g>
</g>
<g>
</g>
<g>
</g>
<g>
</g>
</svg>
