<svg xmlns="http://www.w3.org/2000/svg" viewBox="0 0 11 10" shape-rendering="crispEdges"><rect x="4" y="0" width="3" height="1" fill="#000000"/><rect x="3" y="1" width="5" height="1" fill="#000000"/><rect x="3" y="2" width="2" height="1" fill="#000000"/><rect x="5" y="2" width="1" height="1" fill="#FFCC00"/><rect x="6" y="2" width="2" height="1" fill="#000000"/><rect x="2" y="3" width="3" height="1" fill="#000000"/><rect x="5" y="3" width="1" height="1" fill="#FFCC00"/><rect x="6" y="3" width="3" height="1" fill="#000000"/><rect x="2" y="4" width="3" height="1" fill="#000000"/><rect x="5" y="4" width="1" height="1" fill="#FFCC00"/><rect x="6" y="4" width="3" height="1" fill="#000000"/><rect x="1" y="5" width="4" height="1" fill="#000000"/><rect x="5" y="5" width="1" height="1" fill="#FFCC00"/><rect x="6" y="5" width="4" height="1" fill="#000000"/><rect x="1" y="6" width="9" height="1" fill="#000000"/><rect x="0" y="7" width="5" height="1" fill="#000000"/><rect x="5" y="7" width="1" height="1" fill="#FFCC00"/><rect x="6" y="7" width="5" height="1" fill="#000000"/><rect x="0" y="8" width="11" height="1" fill="#000000"/><rect x="1" y="9" width="9" height="1" fill="#000000"/></svg>