<svg xmlns="http://www.w3.org/2000/svg" viewBox="0 0 24 24" shape-rendering="crispEdges"><rect x="8" y="0" width="7" height="1" fill="#000000"/><rect x="6" y="1" width="11" height="1" fill="#000000"/><rect x="4" y="2" width="3" height="1" fill="#000000"/><rect x="7" y="2" width="9" height="1" fill="#0066CC"/><rect x="16" y="2" width="3" height="1" fill="#000000"/><rect x="3" y="3" width="3" height="1" fill="#000000"/><rect x="6" y="3" width="11" height="1" fill="#0066CC"/><rect x="17" y="3" width="3" height="1" fill="#000000"/><rect x="2" y="4" width="2" height="1" fill="#000000"/><rect x="4" y="4" width="15" height="1" fill="#0066CC"/><rect x="19" y="4" width="2" height="1" fill="#000000"/><rect x="2" y="5" width="2" height="1" fill="#000000"/><rect x="4" y="5" width="15" height="1" fill="#0066CC"/><rect x="19" y="5" width="2" height="1" fill="#000000"/><rect x="21" y="5" width="1" height="1" fill="#808080"/><rect x="1" y="6" width="2" height="1" fill="#000000"/><rect x="3" y="6" width="17" height="1" fill="#0066CC"/><rect x="20" y="6" width="2" height="1" fill="#000000"/><rect x="1" y="7" width="1" height="1" fill="#000000"/><rect x="2" y="7" width="3" height="1" fill="#0066CC"/><rect x="5" y="7" width="1" height="1" fill="#FFFFFF"/><rect x="6" y="7" width="11" height="1" fill="#0066CC"/><rect x="17" y="7" width="1" height="1" fill="#FFFFFF"/><rect x="18" y="7" width="3" height="1" fill="#0066CC"/><rect x="21" y="7" width="1" height="1" fill="#000000"/><rect x="22" y="7" width="1" height="1" fill="#808080"/><rect x="0" y="8" width="2" height="1" fill="#000000"/><rect x="2" y="8" width="2" height="1" fill="#0066CC"/><rect x="4" y="8" width="1" height="1" fill="#FFFFFF"/><rect x="5" y="8" width="1" height="1" fill="#0066CC"/><rect x="6" y="8" width="1" height="1" fill="#FFFFFF"/><rect x="7" y="8" width="9" height="1" fill="#0066CC"/><rect x="16" y="8" width="1" height="1" fill="#FFFFFF"/><rect x="17" y="8" width="1" height="1" fill="#0066CC"/><rect x="18" y="8" width="1" height="1" fill="#FFFFFF"/><rect x="19" y="8" width="2" height="1" fill="#0066CC"/><rect x="21" y="8" width="2" height="1" fill="#000000"/><rect x="0" y="9" width="2" height="1" fill="#000000"/><rect x="2" y="9" width="1" height="1" fill="#0066CC"/><rect x="3" y="9" width="17" height="1" fill="#FFFFFF"/><rect x="20" y="9" width="1" height="1" fill="#0066CC"/><rect x="21" y="9" width="2" height="1" fill="#000000"/><rect x="23" y="9" width="1" height="1" fill="#808080"/><rect x="0" y="10" width="2" height="1" fill="#000000"/><rect x="2" y="10" width="1" height="1" fill="#0066CC"/><rect x="3" y="10" width="1" height="1" fill="#FFFFFF"/><rect x="4" y="10" width="6" height="1" fill="#FF9A00"/><rect x="10" y="10" width="3" height="1" fill="#FFFFFF"/><rect x="13" y="10" width="6" height="1" fill="#FF9A00"/><rect x="19" y="10" width="1" height="1" fill="#FFFFFF"/><rect x="20" y="10" width="1" height="1" fill="#0066CC"/><rect x="21" y="10" width="2" height="1" fill="#000000"/><rect x="23" y="10" width="1" height="1" fill="#808080"/><rect x="0" y="11" width="2" height="1" fill="#000000"/><rect x="2" y="11" width="1" height="1" fill="#0066CC"/><rect x="3" y="11" width="1" height="1" fill="#FFFFFF"/><rect x="4" y="11" width="4" height="1" fill="#FF9A00"/><rect x="8" y="11" width="1" height="1" fill="#FFE9A0"/><rect x="9" y="11" width="1" height="1" fill="#FF9A00"/><rect x="10" y="11" width="3" height="1" fill="#FFFFFF"/><rect x="13" y="11" width="4" height="1" fill="#FF9A00"/><rect x="17" y="11" width="1" height="1" fill="#FFE9A0"/><rect x="18" y="11" width="1" height="1" fill="#FF9A00"/><rect x="19" y="11" width="1" height="1" fill="#FFFFFF"/><rect x="20" y="11" width="1" height="1" fill="#0066CC"/><rect x="21" y="11" width="2" height="1" fill="#000000"/><rect x="23" y="11" width="1" height="1" fill="#808080"/><rect x="0" y="12" width="2" height="1" fill="#000000"/><rect x="2" y="12" width="1" height="1" fill="#0066CC"/><rect x="3" y="12" width="1" height="1" fill="#FFFFFF"/><rect x="4" y="12" width="3" height="1" fill="#FF9A00"/><rect x="7" y="12" width="1" height="1" fill="#FFE9A0"/><rect x="8" y="12" width="3" height="1" fill="#FF9A00"/><rect x="11" y="12" width="1" height="1" fill="#FFFFFF"/><rect x="12" y="12" width="4" height="1" fill="#FF9A00"/><rect x="16" y="12" width="1" height="1" fill="#FFE9A0"/><rect x="17" y="12" width="2" height="1" fill="#FF9A00"/><rect x="19" y="12" width="1" height="1" fill="#FFFFFF"/><rect x="20" y="12" width="1" height="1" fill="#0066CC"/><rect x="21" y="12" width="2" height="1" fill="#000000"/><rect x="23" y="12" width="1" height="1" fill="#808080"/><rect x="0" y="13" width="2" height="1" fill="#000000"/><rect x="2" y="13" width="1" height="1" fill="#0066CC"/><rect x="3" y="13" width="1" height="1" fill="#FFFFFF"/><rect x="4" y="13" width="5" height="1" fill="#FF9A00"/><rect x="9" y="13" width="1" height="1" fill="#FFFFFF"/><rect x="10" y="13" width="3" height="1" fill="#0066CC"/><rect x="13" y="13" width="1" height="1" fill="#FFFFFF"/><rect x="14" y="13" width="5" height="1" fill="#FF9A00"/><rect x="19" y="13" width="1" height="1" fill="#FFFFFF"/><rect x="20" y="13" width="1" height="1" fill="#0066CC"/><rect x="21" y="13" width="2" height="1" fill="#000000"/><rect x="23" y="13" width="1" height="1" fill="#808080"/><rect x="0" y="14" width="2" height="1" fill="#000000"/><rect x="2" y="14" width="2" height="1" fill="#0066CC"/><rect x="4" y="14" width="5" height="1" fill="#FFFFFF"/><rect x="9" y="14" width="5" height="1" fill="#0066CC"/><rect x="14" y="14" width="5" height="1" fill="#FFFFFF"/><rect x="19" y="14" width="2" height="1" fill="#0066CC"/><rect x="21" y="14" width="2" height="1" fill="#000000"/><rect x="23" y="14" width="1" height="1" fill="#808080"/><rect x="1" y="15" width="1" height="1" fill="#000000"/><rect x="2" y="15" width="19" height="1" fill="#0066CC"/><rect x="21" y="15" width="1" height="1" fill="#000000"/><rect x="22" y="15" width="2" height="1" fill="#808080"/><rect x="1" y="16" width="2" height="1" fill="#000000"/><rect x="3" y="16" width="17" height="1" fill="#0066CC"/><rect x="20" y="16" width="2" height="1" fill="#000000"/><rect x="22" y="16" width="1" height="1" fill="#808080"/><rect x="2" y="17" width="2" height="1" fill="#000000"/><rect x="4" y="17" width="15" height="1" fill="#0066CC"/><rect x="19" y="17" width="2" height="1" fill="#000000"/><rect x="21" y="17" width="2" height="1" fill="#808080"/><rect x="2" y="18" width="2" height="1" fill="#000000"/><rect x="4" y="18" width="15" height="1" fill="#0066CC"/><rect x="19" y="18" width="2" height="1" fill="#000000"/><rect x="21" y="18" width="1" height="1" fill="#808080"/><rect x="3" y="19" width="3" height="1" fill="#000000"/><rect x="6" y="19" width="11" height="1" fill="#0066CC"/><rect x="17" y="19" width="3" height="1" fill="#000000"/><rect x="20" y="19" width="2" height="1" fill="#808080"/><rect x="4" y="20" width="3" height="1" fill="#000000"/><rect x="7" y="20" width="9" height="1" fill="#0066CC"/><rect x="16" y="20" width="3" height="1" fill="#000000"/><rect x="19" y="20" width="2" height="1" fill="#808080"/><rect x="5" y="21" width="1" height="1" fill="#808080"/><rect x="6" y="21" width="11" height="1" fill="#000000"/><rect x="17" y="21" width="3" height="1" fill="#808080"/><rect x="7" y="22" width="1" height="1" fill="#808080"/><rect x="8" y="22" width="7" height="1" fill="#000000"/><rect x="15" y="22" width="3" height="1" fill="#808080"/><rect x="9" y="23" width="7" height="1" fill="#808080"/></svg>