<svg xmlns="http://www.w3.org/2000/svg" viewBox="0 0 26 12" shape-rendering="crispEdges"><rect x="0" y="0" width="1" height="1" fill="#000000"/><rect x="24" y="0" width="1" height="1" fill="#000000"/><rect x="0" y="1" width="2" height="1" fill="#000000"/><rect x="23" y="1" width="2" height="1" fill="#000000"/><rect x="25" y="1" width="1" height="1" fill="#808080"/><rect x="1" y="2" width="1" height="1" fill="#000000"/><rect x="2" y="2" width="1" height="1" fill="#808080"/><rect x="23" y="2" width="1" height="1" fill="#000000"/><rect x="24" y="2" width="2" height="1" fill="#808080"/><rect x="1" y="3" width="23" height="1" fill="#000000"/><rect x="24" y="3" width="1" height="1" fill="#808080"/><rect x="1" y="4" width="1" height="1" fill="#000000"/><rect x="2" y="4" width="1" height="1" fill="#20B040"/><rect x="3" y="4" width="1" height="1" fill="#A8E6A0"/><rect x="4" y="4" width="1" height="1" fill="#20B040"/><rect x="5" y="4" width="1" height="1" fill="#A8E6A0"/><rect x="6" y="4" width="1" height="1" fill="#20B040"/><rect x="7" y="4" width="1" height="1" fill="#A8E6A0"/><rect x="8" y="4" width="1" height="1" fill="#20B040"/><rect x="9" y="4" width="1" height="1" fill="#A8E6A0"/><rect x="10" y="4" width="1" height="1" fill="#20B040"/><rect x="11" y="4" width="1" height="1" fill="#A8E6A0"/><rect x="12" y="4" width="1" height="1" fill="#20B040"/><rect x="13" y="4" width="1" height="1" fill="#A8E6A0"/><rect x="14" y="4" width="1" height="1" fill="#20B040"/><rect x="15" y="4" width="1" height="1" fill="#A8E6A0"/><rect x="16" y="4" width="1" height="1" fill="#20B040"/><rect x="17" y="4" width="1" height="1" fill="#A8E6A0"/><rect x="18" y="4" width="1" height="1" fill="#20B040"/><rect x="19" y="4" width="1" height="1" fill="#A8E6A0"/><rect x="20" y="4" width="1" height="1" fill="#20B040"/><rect x="21" y="4" width="1" height="1" fill="#A8E6A0"/><rect x="22" y="4" width="1" height="1" fill="#20B040"/><rect x="23" y="4" width="1" height="1" fill="#000000"/><rect x="24" y="4" width="1" height="1" fill="#808080"/><rect x="1" y="5" width="1" height="1" fill="#000000"/><rect x="2" y="5" width="1" height="1" fill="#A8E6A0"/><rect x="3" y="5" width="2" height="1" fill="#FFFFFF"/><rect x="5" y="5" width="1" height="1" fill="#20B040"/><rect x="6" y="5" width="1" height="1" fill="#A8E6A0"/><rect x="7" y="5" width="1" height="1" fill="#20B040"/><rect x="8" y="5" width="1" height="1" fill="#A8E6A0"/><rect x="9" y="5" width="1" height="1" fill="#20B040"/><rect x="10" y="5" width="1" height="1" fill="#A8E6A0"/><rect x="11" y="5" width="1" height="1" fill="#20B040"/><rect x="12" y="5" width="1" height="1" fill="#A8E6A0"/><rect x="13" y="5" width="1" height="1" fill="#20B040"/><rect x="14" y="5" width="2" height="1" fill="#FFFFFF"/><rect x="16" y="5" width="1" height="1" fill="#A8E6A0"/><rect x="17" y="5" width="1" height="1" fill="#20B040"/><rect x="18" y="5" width="1" height="1" fill="#A8E6A0"/><rect x="19" y="5" width="1" height="1" fill="#20B040"/><rect x="20" y="5" width="1" height="1" fill="#A8E6A0"/><rect x="21" y="5" width="1" height="1" fill="#20B040"/><rect x="22" y="5" width="1" height="1" fill="#A8E6A0"/><rect x="23" y="5" width="1" height="1" fill="#000000"/><rect x="24" y="5" width="1" height="1" fill="#808080"/><rect x="1" y="6" width="1" height="1" fill="#000000"/><rect x="2" y="6" width="1" height="1" fill="#20B040"/><rect x="3" y="6" width="1" height="1" fill="#FFFFFF"/><rect x="4" y="6" width="1" height="1" fill="#20B040"/><rect x="5" y="6" width="1" height="1" fill="#A8E6A0"/><rect x="6" y="6" width="1" height="1" fill="#20B040"/><rect x="7" y="6" width="1" height="1" fill="#A8E6A0"/><rect x="8" y="6" width="1" height="1" fill="#20B040"/><rect x="9" y="6" width="1" height="1" fill="#A8E6A0"/><rect x="10" y="6" width="1" height="1" fill="#20B040"/><rect x="11" y="6" width="1" height="1" fill="#A8E6A0"/><rect x="12" y="6" width="1" height="1" fill="#20B040"/><rect x="13" y="6" width="1" height="1" fill="#A8E6A0"/><rect x="14" y="6" width="1" height="1" fill="#FFFFFF"/><rect x="15" y="6" width="1" height="1" fill="#A8E6A0"/><rect x="16" y="6" width="1" height="1" fill="#20B040"/><rect x="17" y="6" width="1" height="1" fill="#A8E6A0"/><rect x="18" y="6" width="1" height="1" fill="#20B040"/><rect x="19" y="6" width="1" height="1" fill="#A8E6A0"/><rect x="20" y="6" width="1" height="1" fill="#20B040"/><rect x="21" y="6" width="1" height="1" fill="#A8E6A0"/><rect x="22" y="6" width="1" height="1" fill="#20B040"/><rect x="23" y="6" width="1" height="1" fill="#000000"/><rect x="24" y="6" width="1" height="1" fill="#808080"/><rect x="1" y="7" width="1" height="1" fill="#000000"/><rect x="2" y="7" width="1" height="1" fill="#A8E6A0"/><rect x="3" y="7" width="1" height="1" fill="#20B040"/><rect x="4" y="7" width="1" height="1" fill="#A8E6A0"/><rect x="5" y="7" width="1" height="1" fill="#20B040"/><rect x="6" y="7" width="1" height="1" fill="#A8E6A0"/><rect x="7" y="7" width="1" height="1" fill="#20B040"/><rect x="8" y="7" width="1" height="1" fill="#A8E6A0"/><rect x="9" y="7" width="1" height="1" fill="#20B040"/><rect x="10" y="7" width="1" height="1" fill="#A8E6A0"/><rect x="11" y="7" width="1" height="1" fill="#20B040"/><rect x="12" y="7" width="1" height="1" fill="#A8E6A0"/><rect x="13" y="7" width="1" height="1" fill="#20B040"/><rect x="14" y="7" width="1" height="1" fill="#A8E6A0"/><rect x="15" y="7" width="1" height="1" fill="#20B040"/><rect x="16" y="7" width="1" height="1" fill="#A8E6A0"/><rect x="17" y="7" width="1" height="1" fill="#20B040"/><rect x="18" y="7" width="1" height="1" fill="#A8E6A0"/><rect x="19" y="7" width="1" height="1" fill="#20B040"/><rect x="20" y="7" width="1" height="1" fill="#A8E6A0"/><rect x="21" y="7" width="1" height="1" fill="#20B040"/><rect x="22" y="7" width="1" height="1" fill="#A8E6A0"/><rect x="23" y="7" width="1" height="1" fill="#000000"/><rect x="24" y="7" width="1" height="1" fill="#808080"/><rect x="1" y="8" width="1" height="1" fill="#000000"/><rect x="2" y="8" width="1" height="1" fill="#20B040"/><rect x="3" y="8" width="1" height="1" fill="#A8E6A0"/><rect x="4" y="8" width="1" height="1" fill="#20B040"/><rect x="5" y="8" width="1" height="1" fill="#A8E6A0"/><rect x="6" y="8" width="1" height="1" fill="#20B040"/><rect x="7" y="8" width="1" height="1" fill="#A8E6A0"/><rect x="8" y="8" width="1" height="1" fill="#20B040"/><rect x="9" y="8" width="1" height="1" fill="#A8E6A0"/><rect x="10" y="8" width="5" height="1" fill="#000000"/><rect x="15" y="8" width="1" height="1" fill="#A8E6A0"/><rect x="16" y="8" width="1" height="1" fill="#20B040"/><rect x="17" y="8" width="1" height="1" fill="#A8E6A0"/><rect x="18" y="8" width="1" height="1" fill="#20B040"/><rect x="19" y="8" width="1" height="1" fill="#A8E6A0"/><rect x="20" y="8" width="1" height="1" fill="#20B040"/><rect x="21" y="8" width="1" height="1" fill="#A8E6A0"/><rect x="22" y="8" width="1" height="1" fill="#20B040"/><rect x="23" y="8" width="1" height="1" fill="#000000"/><rect x="24" y="8" width="1" height="1" fill="#808080"/><rect x="1" y="9" width="2" height="1" fill="#000000"/><rect x="3" y="9" width="1" height="1" fill="#20B040"/><rect x="4" y="9" width="1" height="1" fill="#A8E6A0"/><rect x="5" y="9" width="1" height="1" fill="#20B040"/><rect x="6" y="9" width="1" height="1" fill="#A8E6A0"/><rect x="7" y="9" width="1" height="1" fill="#20B040"/><rect x="8" y="9" width="1" height="1" fill="#A8E6A0"/><rect x="9" y="9" width="2" height="1" fill="#000000"/><rect x="11" y="9" width="3" height="1" fill="#808080"/><rect x="14" y="9" width="2" height="1" fill="#000000"/><rect x="16" y="9" width="1" height="1" fill="#A8E6A0"/><rect x="17" y="9" width="1" height="1" fill="#20B040"/><rect x="18" y="9" width="1" height="1" fill="#A8E6A0"/><rect x="19" y="9" width="1" height="1" fill="#20B040"/><rect x="20" y="9" width="1" height="1" fill="#A8E6A0"/><rect x="21" y="9" width="1" height="1" fill="#20B040"/><rect x="22" y="9" width="2" height="1" fill="#000000"/><rect x="24" y="9" width="1" height="1" fill="#808080"/><rect x="2" y="10" width="8" height="1" fill="#000000"/><rect x="10" y="10" width="2" height="1" fill="#808080"/><rect x="15" y="10" width="8" height="1" fill="#000000"/><rect x="23" y="10" width="2" height="1" fill="#808080"/><rect x="3" y="11" width="8" height="1" fill="#808080"/><rect x="16" y="11" width="8" height="1" fill="#808080"/></svg>