<svg xmlns="http://www.w3.org/2000/svg" viewBox="0 0 24 21" shape-rendering="crispEdges"><rect x="10" y="0" width="3" height="1" fill="#000000"/><rect x="9" y="1" width="5" height="1" fill="#000000"/><rect x="9" y="2" width="2" height="1" fill="#000000"/><rect x="11" y="2" width="1" height="1" fill="#FFCC00"/><rect x="12" y="2" width="2" height="1" fill="#000000"/><rect x="14" y="2" width="1" height="1" fill="#808080"/><rect x="8" y="3" width="3" height="1" fill="#000000"/><rect x="11" y="3" width="1" height="1" fill="#FFCC00"/><rect x="12" y="3" width="3" height="1" fill="#000000"/><rect x="8" y="4" width="2" height="1" fill="#000000"/><rect x="10" y="4" width="3" height="1" fill="#FFCC00"/><rect x="13" y="4" width="2" height="1" fill="#000000"/><rect x="15" y="4" width="1" height="1" fill="#808080"/><rect x="7" y="5" width="3" height="1" fill="#000000"/><rect x="10" y="5" width="3" height="1" fill="#FFCC00"/><rect x="13" y="5" width="3" height="1" fill="#000000"/><rect x="7" y="6" width="2" height="1" fill="#000000"/><rect x="9" y="6" width="5" height="1" fill="#FFCC00"/><rect x="14" y="6" width="2" height="1" fill="#000000"/><rect x="16" y="6" width="1" height="1" fill="#808080"/><rect x="6" y="7" width="3" height="1" fill="#000000"/><rect x="9" y="7" width="5" height="1" fill="#FFCC00"/><rect x="14" y="7" width="3" height="1" fill="#000000"/><rect x="6" y="8" width="2" height="1" fill="#000000"/><rect x="8" y="8" width="7" height="1" fill="#FFCC00"/><rect x="15" y="8" width="2" height="1" fill="#000000"/><rect x="17" y="8" width="1" height="1" fill="#808080"/><rect x="5" y="9" width="3" height="1" fill="#000000"/><rect x="8" y="9" width="7" height="1" fill="#FFCC00"/><rect x="15" y="9" width="3" height="1" fill="#000000"/><rect x="5" y="10" width="2" height="1" fill="#000000"/><rect x="7" y="10" width="4" height="1" fill="#FFCC00"/><rect x="11" y="10" width="1" height="1" fill="#000000"/><rect x="12" y="10" width="4" height="1" fill="#FFCC00"/><rect x="16" y="10" width="2" height="1" fill="#000000"/><rect x="18" y="10" width="1" height="1" fill="#808080"/><rect x="4" y="11" width="3" height="1" fill="#000000"/><rect x="7" y="11" width="2" height="1" fill="#FFCC00"/><rect x="9" y="11" width="1" height="1" fill="#000000"/><rect x="10" y="11" width="1" height="1" fill="#FFCC00"/><rect x="11" y="11" width="1" height="1" fill="#000000"/><rect x="12" y="11" width="1" height="1" fill="#FFCC00"/><rect x="13" y="11" width="1" height="1" fill="#000000"/><rect x="14" y="11" width="2" height="1" fill="#FFCC00"/><rect x="16" y="11" width="3" height="1" fill="#000000"/><rect x="4" y="12" width="2" height="1" fill="#000000"/><rect x="6" y="12" width="4" height="1" fill="#FFCC00"/><rect x="10" y="12" width="3" height="1" fill="#000000"/><rect x="13" y="12" width="4" height="1" fill="#FFCC00"/><rect x="17" y="12" width="2" height="1" fill="#000000"/><rect x="19" y="12" width="1" height="1" fill="#808080"/><rect x="3" y="13" width="12" height="1" fill="#000000"/><rect x="15" y="13" width="2" height="1" fill="#FFCC00"/><rect x="17" y="13" width="3" height="1" fill="#000000"/><rect x="3" y="14" width="2" height="1" fill="#000000"/><rect x="5" y="14" width="5" height="1" fill="#FFCC00"/><rect x="10" y="14" width="3" height="1" fill="#000000"/><rect x="13" y="14" width="5" height="1" fill="#FFCC00"/><rect x="18" y="14" width="2" height="1" fill="#000000"/><rect x="20" y="14" width="1" height="1" fill="#808080"/><rect x="2" y="15" width="3" height="1" fill="#000000"/><rect x="5" y="15" width="4" height="1" fill="#FFCC00"/><rect x="9" y="15" width="1" height="1" fill="#000000"/><rect x="10" y="15" width="1" height="1" fill="#FFCC00"/><rect x="11" y="15" width="1" height="1" fill="#000000"/><rect x="12" y="15" width="1" height="1" fill="#FFCC00"/><rect x="13" y="15" width="1" height="1" fill="#000000"/><rect x="14" y="15" width="4" height="1" fill="#FFCC00"/><rect x="18" y="15" width="3" height="1" fill="#000000"/><rect x="2" y="16" width="2" height="1" fill="#000000"/><rect x="4" y="16" width="7" height="1" fill="#FFCC00"/><rect x="11" y="16" width="1" height="1" fill="#000000"/><rect x="12" y="16" width="7" height="1" fill="#FFCC00"/><rect x="19" y="16" width="2" height="1" fill="#000000"/><rect x="21" y="16" width="1" height="1" fill="#808080"/><rect x="1" y="17" width="3" height="1" fill="#000000"/><rect x="4" y="17" width="15" height="1" fill="#FFCC00"/><rect x="19" y="17" width="3" height="1" fill="#000000"/><rect x="1" y="18" width="21" height="1" fill="#000000"/><rect x="22" y="18" width="1" height="1" fill="#808080"/><rect x="2" y="19" width="19" height="1" fill="#000000"/><rect x="21" y="19" width="2" height="1" fill="#808080"/><rect x="3" y="20" width="19" height="1" fill="#808080"/></svg>