<?xml version="1.0" encoding="UTF-8"?>
<svg xmlns="http://www.w3.org/2000/svg" xmlns:xlink="http://www.w3.org/1999/xlink" width="360pt" height="223pt" viewBox="0 0 360 223" version="1.1">
<g id="surface48">
<path style="fill:none;stroke-width:2;stroke-linecap:square;stroke-linejoin:miter;stroke:rgb(36.84082%,50.675964%,70.977783%);stroke-opacity:1;stroke-miterlimit:3.25;" d="M 73.558594 33.136719 L 73.753906 33.582031 L 73.945313 34.03125 L 74.332031 34.921875 L 75.105469 36.699219 L 76.648438 40.226563 L 79.742188 47.179688 L 86.441406 61.765625 L 92.695313 74.792969 L 98.832031 87.003906 L 105.484375 99.625 L 111.695313 110.8125 L 118.421875 122.296875 L 125.03125 132.925781 L 131.191406 142.257813 L 137.875 151.746094 L 144.113281 160.011719 L 150.230469 167.558594 L 156.863281 175.125 L 163.054688 181.601563 L 169.769531 187.980469 L 176.355469 193.601563 L 182.5 198.265625 L 189.167969 202.695313 L 189.261719 202.753906 L 189.359375 202.816406 L 189.554688 202.933594 L 189.945313 203.171875 L 190.722656 203.636719 L 192.277344 204.539063 L 195.386719 206.242188 L 196.230469 206.679688 L 197.070313 207.105469 L 198.757813 207.925781 L 198.863281 207.976563 L 198.96875 208.023438 L 199.179688 208.125 L 199.597656 208.320313 L 200.441406 208.703125 L 202.128906 209.441406 L 202.332031 209.527344 L 202.539063 209.617188 L 202.953125 209.789063 L 203.78125 210.125 L 205.4375 210.765625 L 205.539063 210.804688 L 205.644531 210.84375 L 205.847656 210.921875 L 206.261719 211.074219 L 207.089844 211.367188 L 208.746094 211.929688 L 208.839844 211.960938 L 208.9375 211.992188 L 209.128906 212.054688 L 209.515625 212.179688 L 210.289063 212.417969 L 211.832031 212.871094 L 211.929688 212.898438 L 212.023438 212.925781 L 212.21875 212.980469 L 212.601563 213.085938 L 213.375 213.289063 L 214.917969 213.671875 L 215.023438 213.699219 L 215.128906 213.722656 L 215.335938 213.769531 L 215.753906 213.867188 L 216.59375 214.046875 L 216.695313 214.070313 L 216.800781 214.09375 L 217.011719 214.136719 L 218.265625 214.382813 L 218.371094 214.402344 L 218.472656 214.421875 L 218.683594 214.460938 L 219.101563 214.535156 L 219.9375 214.675781 L 221.613281 214.925781 L 221.710938 214.941406 L 221.808594 214.953125 L 222.003906 214.980469 L 222.394531 215.03125 L 223.371094 215.148438 L 223.566406 215.167969 L 223.957031 215.210938 L 224.738281 215.285156 L 224.835938 215.296875 L 225.128906 215.320313 L 225.519531 215.355469 L 225.910156 215.386719 L 226.300781 215.414063 L 226.398438 215.417969 L 226.496094 215.425781 L 227.082031 215.460938 L 227.179688 215.46875 L 227.277344 215.472656 L 227.472656 215.484375 L 227.863281 215.503906 L 227.957031 215.507813 L 228.054688 215.511719 L 228.246094 215.519531 L 228.339844 215.523438 L 228.4375 215.527344 L 228.628906 215.535156 L 228.722656 215.539063 L 228.820313 215.539063 L 229.011719 215.546875 L 229.105469 215.550781 L 229.203125 215.550781 L 229.394531 215.554688 L 229.488281 215.558594 L 229.585938 215.5625 L 229.777344 215.5625 L 229.871094 215.566406 L 229.96875 215.566406 L 230.0625 215.570313 L 230.253906 215.570313 L 230.351563 215.574219 L 231.59375 215.574219 L 231.691406 215.570313 L 231.882813 215.570313 L 231.976563 215.566406 L 232.167969 215.566406 L 232.265625 215.5625 L 232.457031 215.558594 L 232.550781 215.558594 L 232.648438 215.554688 L 232.839844 215.550781 L 232.933594 215.546875 L 233.03125 215.542969 L 233.222656 215.539063 L 233.320313 215.535156 L 233.414063 215.53125 L 233.988281 215.507813 L 234.09375 215.503906 L 234.195313 215.5 L 234.402344 215.488281 L 234.820313 215.46875 L 234.921875 215.460938 L 235.027344 215.457031 L 235.234375 215.441406 L 235.648438 215.414063 L 235.753906 215.410156 L 235.859375 215.402344 L 236.480469 215.355469 L 237.3125 215.28125 L 237.414063 215.273438 L 237.519531 215.261719 L 237.726563 215.242188 L 238.144531 215.199219 L 238.972656 215.105469 L 239.078125 215.09375 L 239.179688 215.082031 L 239.390625 215.058594 L 239.804688 215.003906 L 240.636719 214.890625 L 240.730469 214.878906 L 240.828125 214.863281 L 241.023438 214.835938 L 241.410156 214.777344 L 242.1875 214.652344 L 242.28125 214.636719 L 242.574219 214.589844 L 242.960938 214.523438 L 243.738281 214.378906 L 243.832031 214.363281 L 243.929688 214.34375 L 244.125 214.308594 L 244.511719 214.230469 L 245.289063 214.070313 L 247.046875 213.679688 L 247.679688 213.527344 L 248.519531 213.316406 L 250.199219 212.859375 L 250.304688 212.832031 L 250.410156 212.800781 L 250.621094 212.742188 L 251.039063 212.617188 L 251.878906 212.367188 L 253.558594 211.828125 L 253.664063 211.792969 L 253.765625 211.757813 L 253.972656 211.691406 L 254.386719 211.550781 L 255.210938 211.261719 L 256.859375 210.652344 L 260.160156 209.316406 L 260.257813 209.273438 L 260.351563 209.230469 L 260.546875 209.148438 L 260.929688 208.980469 L 261.699219 208.636719 L 263.238281 207.925781 L 266.316406 206.394531 L 266.421875 206.339844 L 266.523438 206.285156 L 266.734375 206.175781 L 267.152344 205.953125 L 267.984375 205.503906 L 269.652344 204.574219 L 272.992188 202.59375 L 279.222656 198.457031 L 285.332031 193.84375 L 291.960938 188.21875 L 298.144531 182.386719 L 304.851563 175.429688 L 311.109375 168.332031 L 317.25 160.816406 L 323.90625 152.039063 L 330.121094 143.253906 L 336.855469 133.09375 L 343.464844 122.472656 L 349.632813 111.980469 L 356.320313 99.972656 L 362.5625 88.171875 L 368.679688 76.042969 L 375.320313 62.257813 L 381.515625 48.8125 L 381.625 48.574219 L 381.734375 48.332031 L 381.949219 47.855469 L 382.382813 46.890625 L 383.246094 44.960938 L 384.976563 41.0625 L 385.082031 40.816406 L 385.191406 40.570313 L 385.40625 40.082031 L 385.839844 39.097656 L 386.703125 37.121094 L 386.8125 36.875 L 386.921875 36.625 L 387.136719 36.128906 L 387.570313 35.132813 L 387.675781 34.882813 L 387.785156 34.636719 L 388 34.136719 L 388.21875 33.636719 L 388.324219 33.386719 L 388.433594 33.136719 " transform="matrix(1,0,0,1,-66,-5)"/>
<path style="fill:none;stroke-width:2;stroke-linecap:butt;stroke-linejoin:miter;stroke:rgb(99.996948%,99.996948%,99.996948%);stroke-opacity:1;stroke-miterlimit:3.25;" d="M 73.558594 215.574219 L 73.558594 213.25 " transform="matrix(1,0,0,1,-66,-5)"/>
<path style="fill:none;stroke-width:2;stroke-linecap:butt;stroke-linejoin:miter;stroke:rgb(99.996948%,99.996948%,99.996948%);stroke-opacity:1;stroke-miterlimit:3.25;" d="M 89.304688 215.574219 L 89.304688 213.25 " transform="matrix(1,0,0,1,-66,-5)"/>
<path style="fill:none;stroke-width:2;stroke-linecap:butt;stroke-linejoin:miter;stroke:rgb(99.996948%,99.996948%,99.996948%);stroke-opacity:1;stroke-miterlimit:3.25;" d="M 105.046875 215.574219 L 105.046875 211.699219 " transform="matrix(1,0,0,1,-66,-5)"/>
<path style=" stroke:none;fill-rule:evenodd;fill:rgb(99.996948%,99.996948%,99.996948%);fill-opacity:1;" d="M 38.71875 220.59375 L 34.457031 220.59375 L 34.457031 219.855469 L 38.71875 219.855469 Z M 38.71875 220.59375 "/>
<path style=" stroke:none;fill-rule:evenodd;fill:rgb(99.996948%,99.996948%,99.996948%);fill-opacity:1;" d="M 41.988281 222.574219 L 41.988281 221.046875 L 39.253906 221.046875 L 39.253906 220.320313 L 42.128906 216.136719 L 42.761719 216.136719 L 42.761719 220.320313 L 43.621094 220.320313 L 43.621094 221.046875 L 42.761719 221.046875 L 42.761719 222.574219 Z M 41.988281 220.320313 L 41.988281 217.410156 L 40.015625 220.320313 Z M 41.988281 220.320313 "/>
<path style="fill:none;stroke-width:2;stroke-linecap:butt;stroke-linejoin:miter;stroke:rgb(99.996948%,99.996948%,99.996948%);stroke-opacity:1;stroke-miterlimit:3.25;" d="M 120.789063 215.574219 L 120.789063 213.25 " transform="matrix(1,0,0,1,-66,-5)"/>
<path style="fill:none;stroke-width:2;stroke-linecap:butt;stroke-linejoin:miter;stroke:rgb(99.996948%,99.996948%,99.996948%);stroke-opacity:1;stroke-miterlimit:3.25;" d="M 136.535156 215.574219 L 136.535156 213.25 " transform="matrix(1,0,0,1,-66,-5)"/>
<path style="fill:none;stroke-width:2;stroke-linecap:butt;stroke-linejoin:miter;stroke:rgb(99.996948%,99.996948%,99.996948%);stroke-opacity:1;stroke-miterlimit:3.25;" d="M 152.277344 215.574219 L 152.277344 213.25 " transform="matrix(1,0,0,1,-66,-5)"/>
<path style="fill:none;stroke-width:2;stroke-linecap:butt;stroke-linejoin:miter;stroke:rgb(99.996948%,99.996948%,99.996948%);stroke-opacity:1;stroke-miterlimit:3.25;" d="M 168.023438 215.574219 L 168.023438 211.699219 " transform="matrix(1,0,0,1,-66,-5)"/>
<path style=" stroke:none;fill-rule:evenodd;fill:rgb(99.996948%,99.996948%,99.996948%);fill-opacity:1;" d="M 101.695313 220.59375 L 97.429688 220.59375 L 97.429688 219.855469 L 101.695313 219.855469 Z M 101.695313 220.59375 "/>
<path style=" stroke:none;fill-rule:evenodd;fill:rgb(99.996948%,99.996948%,99.996948%);fill-opacity:1;" d="M 106.585938 221.816406 L 106.585938 222.574219 L 102.40625 222.574219 C 102.40625 222.386719 102.441406 222.203125 102.511719 222.027344 C 102.621094 221.734375 102.796875 221.449219 103.039063 221.167969 C 103.285156 220.886719 103.621094 220.5625 104.050781 220.191406 C 104.714844 219.613281 105.167969 219.160156 105.402344 218.824219 C 105.636719 218.488281 105.753906 218.167969 105.753906 217.867188 C 105.753906 217.554688 105.644531 217.289063 105.429688 217.074219 C 105.21875 216.859375 104.9375 216.75 104.597656 216.75 C 104.230469 216.75 103.941406 216.863281 103.722656 217.09375 C 103.507813 217.324219 103.398438 217.640625 103.398438 218.042969 L 102.566406 217.960938 C 102.617188 217.355469 102.824219 216.890625 103.175781 216.574219 C 103.527344 216.253906 104.003906 216.09375 104.597656 216.09375 C 105.199219 216.09375 105.671875 216.265625 106.023438 216.613281 C 106.375 216.953125 106.546875 217.378906 106.546875 217.886719 C 106.546875 218.144531 106.496094 218.398438 106.394531 218.648438 C 106.292969 218.898438 106.121094 219.160156 105.882813 219.4375 C 105.644531 219.714844 105.253906 220.09375 104.714844 220.574219 C 104.265625 220.972656 103.972656 221.246094 103.84375 221.386719 C 103.714844 221.53125 103.609375 221.671875 103.527344 221.816406 Z M 106.585938 221.816406 "/>
<path style="fill:none;stroke-width:2;stroke-linecap:butt;stroke-linejoin:miter;stroke:rgb(99.996948%,99.996948%,99.996948%);stroke-opacity:1;stroke-miterlimit:3.25;" d="M 183.765625 215.574219 L 183.765625 213.25 " transform="matrix(1,0,0,1,-66,-5)"/>
<path style="fill:none;stroke-width:2;stroke-linecap:butt;stroke-linejoin:miter;stroke:rgb(99.996948%,99.996948%,99.996948%);stroke-opacity:1;stroke-miterlimit:3.25;" d="M 199.507813 215.574219 L 199.507813 213.25 " transform="matrix(1,0,0,1,-66,-5)"/>
<path style="fill:none;stroke-width:2;stroke-linecap:butt;stroke-linejoin:miter;stroke:rgb(99.996948%,99.996948%,99.996948%);stroke-opacity:1;stroke-miterlimit:3.25;" d="M 215.253906 215.574219 L 215.253906 213.25 " transform="matrix(1,0,0,1,-66,-5)"/>
<path style="fill:none;stroke-width:2;stroke-linecap:butt;stroke-linejoin:miter;stroke:rgb(99.996948%,99.996948%,99.996948%);stroke-opacity:1;stroke-miterlimit:3.25;" d="M 230.996094 215.574219 L 230.996094 211.699219 " transform="matrix(1,0,0,1,-66,-5)"/>
<path style="fill:none;stroke-width:2;stroke-linecap:butt;stroke-linejoin:miter;stroke:rgb(99.996948%,99.996948%,99.996948%);stroke-opacity:1;stroke-miterlimit:3.25;" d="M 246.742188 215.574219 L 246.742188 213.25 " transform="matrix(1,0,0,1,-66,-5)"/>
<path style="fill:none;stroke-width:2;stroke-linecap:butt;stroke-linejoin:miter;stroke:rgb(99.996948%,99.996948%,99.996948%);stroke-opacity:1;stroke-miterlimit:3.25;" d="M 262.484375 215.574219 L 262.484375 213.25 " transform="matrix(1,0,0,1,-66,-5)"/>
<path style="fill:none;stroke-width:2;stroke-linecap:butt;stroke-linejoin:miter;stroke:rgb(99.996948%,99.996948%,99.996948%);stroke-opacity:1;stroke-miterlimit:3.25;" d="M 278.226563 215.574219 L 278.226563 213.25 " transform="matrix(1,0,0,1,-66,-5)"/>
<path style="fill:none;stroke-width:2;stroke-linecap:butt;stroke-linejoin:miter;stroke:rgb(99.996948%,99.996948%,99.996948%);stroke-opacity:1;stroke-miterlimit:3.25;" d="M 293.972656 215.574219 L 293.972656 211.699219 " transform="matrix(1,0,0,1,-66,-5)"/>
<path style=" stroke:none;fill-rule:evenodd;fill:rgb(99.996948%,99.996948%,99.996948%);fill-opacity:1;" d="M 229.914063 221.816406 L 229.914063 222.574219 L 225.738281 222.574219 C 225.738281 222.386719 225.773438 222.203125 225.839844 222.027344 C 225.953125 221.734375 226.128906 221.449219 226.371094 221.167969 C 226.613281 220.886719 226.953125 220.5625 227.378906 220.191406 C 228.046875 219.613281 228.496094 219.160156 228.730469 218.824219 C 228.964844 218.488281 229.082031 218.167969 229.082031 217.867188 C 229.082031 217.554688 228.976563 217.289063 228.761719 217.074219 C 228.546875 216.859375 228.269531 216.75 227.925781 216.75 C 227.5625 216.75 227.273438 216.863281 227.054688 217.09375 C 226.835938 217.324219 226.726563 217.640625 226.726563 218.042969 L 225.894531 217.960938 C 225.949219 217.355469 226.152344 216.890625 226.507813 216.574219 C 226.859375 216.253906 227.332031 216.09375 227.929688 216.09375 C 228.527344 216.09375 229.003906 216.265625 229.355469 216.613281 C 229.703125 216.953125 229.878906 217.378906 229.878906 217.886719 C 229.878906 218.144531 229.828125 218.398438 229.726563 218.648438 C 229.621094 218.898438 229.453125 219.160156 229.214844 219.4375 C 228.976563 219.714844 228.585938 220.09375 228.046875 220.574219 C 227.59375 220.972656 227.304688 221.246094 227.175781 221.386719 C 227.046875 221.53125 226.941406 221.671875 226.859375 221.816406 Z M 229.914063 221.816406 "/>
<path style="fill:none;stroke-width:2;stroke-linecap:butt;stroke-linejoin:miter;stroke:rgb(99.996948%,99.996948%,99.996948%);stroke-opacity:1;stroke-miterlimit:3.25;" d="M 309.714844 215.574219 L 309.714844 213.25 " transform="matrix(1,0,0,1,-66,-5)"/>
<path style="fill:none;stroke-width:2;stroke-linecap:butt;stroke-linejoin:miter;stroke:rgb(99.996948%,99.996948%,99.996948%);stroke-opacity:1;stroke-miterlimit:3.25;" d="M 325.457031 215.574219 L 325.457031 213.25 " transform="matrix(1,0,0,1,-66,-5)"/>
<path style="fill:none;stroke-width:2;stroke-linecap:butt;stroke-linejoin:miter;stroke:rgb(99.996948%,99.996948%,99.996948%);stroke-opacity:1;stroke-miterlimit:3.25;" d="M 341.203125 215.574219 L 341.203125 213.25 " transform="matrix(1,0,0,1,-66,-5)"/>
<path style="fill:none;stroke-width:2;stroke-linecap:butt;stroke-linejoin:miter;stroke:rgb(99.996948%,99.996948%,99.996948%);stroke-opacity:1;stroke-miterlimit:3.25;" d="M 356.945313 215.574219 L 356.945313 211.699219 " transform="matrix(1,0,0,1,-66,-5)"/>
<path style=" stroke:none;fill-rule:evenodd;fill:rgb(99.996948%,99.996948%,99.996948%);fill-opacity:1;" d="M 291.265625 222.574219 L 291.265625 221.046875 L 288.53125 221.046875 L 288.53125 220.320313 L 291.410156 216.136719 L 292.042969 216.136719 L 292.042969 220.320313 L 292.898438 220.320313 L 292.898438 221.046875 L 292.042969 221.046875 L 292.042969 222.574219 Z M 291.265625 220.320313 L 291.265625 217.410156 L 289.292969 220.320313 Z M 291.265625 220.320313 "/>
<path style="fill:none;stroke-width:2;stroke-linecap:butt;stroke-linejoin:miter;stroke:rgb(99.996948%,99.996948%,99.996948%);stroke-opacity:1;stroke-miterlimit:3.25;" d="M 372.691406 215.574219 L 372.691406 213.25 " transform="matrix(1,0,0,1,-66,-5)"/>
<path style="fill:none;stroke-width:2;stroke-linecap:butt;stroke-linejoin:miter;stroke:rgb(99.996948%,99.996948%,99.996948%);stroke-opacity:1;stroke-miterlimit:3.25;" d="M 388.433594 215.574219 L 388.433594 213.25 " transform="matrix(1,0,0,1,-66,-5)"/>
<path style="fill:none;stroke-width:2;stroke-linecap:butt;stroke-linejoin:miter;stroke:rgb(99.996948%,99.996948%,99.996948%);stroke-opacity:1;stroke-miterlimit:3.25;" d="M 67 215.574219 L 394.992188 215.574219 " transform="matrix(1,0,0,1,-66,-5)"/>
<path style=" stroke:none;fill-rule:evenodd;fill:rgb(99.996948%,99.996948%,99.996948%);fill-opacity:1;" d="M 337.058594 213.574219 L 338.726563 211.152344 L 337.183594 208.910156 L 338.152344 208.910156 L 338.855469 210.003906 C 338.984375 210.210938 339.09375 210.386719 339.171875 210.527344 C 339.296875 210.332031 339.414063 210.164063 339.523438 210.011719 L 340.292969 208.910156 L 341.21875 208.910156 L 339.636719 211.105469 L 341.339844 213.574219 L 340.386719 213.574219 L 339.449219 212.125 L 339.199219 211.734375 L 337.996094 213.574219 Z M 337.058594 213.574219 "/>
<path style=" stroke:none;fill-rule:evenodd;fill:rgb(99.996948%,99.996948%,99.996948%);fill-opacity:1;" d="M 347.597656 212.984375 C 347.308594 213.238281 347.035156 213.417969 346.769531 213.515625 C 346.503906 213.617188 346.21875 213.664063 345.914063 213.664063 C 345.414063 213.664063 345.027344 213.539063 344.757813 213.289063 C 344.488281 213.039063 344.355469 212.71875 344.355469 212.328125 C 344.355469 212.101563 344.40625 211.890625 344.507813 211.703125 C 344.609375 211.511719 344.742188 211.359375 344.90625 211.246094 C 345.074219 211.132813 345.257813 211.042969 345.464844 210.988281 C 345.617188 210.945313 345.847656 210.90625 346.152344 210.867188 C 346.777344 210.789063 347.238281 210.699219 347.53125 210.59375 C 347.53125 210.484375 347.53125 210.414063 347.53125 210.386719 C 347.53125 210.0625 347.460938 209.835938 347.3125 209.703125 C 347.117188 209.523438 346.824219 209.433594 346.433594 209.433594 C 346.070313 209.433594 345.800781 209.5 345.628906 209.632813 C 345.457031 209.761719 345.328125 209.992188 345.246094 210.324219 L 344.488281 210.21875 C 344.558594 209.886719 344.671875 209.621094 344.828125 209.414063 C 344.984375 209.210938 345.214844 209.054688 345.511719 208.945313 C 345.808594 208.835938 346.15625 208.78125 346.546875 208.78125 C 346.9375 208.78125 347.253906 208.828125 347.5 208.921875 C 347.742188 209.015625 347.921875 209.132813 348.035156 209.273438 C 348.148438 209.417969 348.230469 209.597656 348.277344 209.8125 C 348.300781 209.949219 348.316406 210.191406 348.316406 210.542969 L 348.316406 211.601563 C 348.316406 212.339844 348.332031 212.804688 348.363281 213.003906 C 348.398438 213.203125 348.464844 213.390625 348.5625 213.574219 L 347.75 213.574219 C 347.671875 213.40625 347.617188 213.210938 347.597656 212.984375 Z M 347.53125 211.214844 C 347.25 211.332031 346.832031 211.429688 346.269531 211.515625 C 345.953125 211.5625 345.726563 211.613281 345.59375 211.671875 C 345.460938 211.730469 345.359375 211.816406 345.289063 211.929688 C 345.21875 212.042969 345.183594 212.167969 345.183594 212.304688 C 345.183594 212.515625 345.261719 212.695313 345.414063 212.835938 C 345.570313 212.976563 345.800781 213.046875 346.101563 213.046875 C 346.398438 213.046875 346.664063 212.980469 346.894531 212.84375 C 347.128906 212.710938 347.296875 212.527344 347.40625 212.296875 C 347.488281 212.117188 347.53125 211.855469 347.53125 211.503906 Z M 349.0625 213.574219 L 350.734375 211.152344 L 349.1875 208.910156 L 350.15625 208.910156 L 350.859375 210.003906 C 350.992188 210.210938 351.097656 210.386719 351.179688 210.527344 C 351.304688 210.332031 351.421875 210.164063 351.527344 210.011719 L 352.296875 208.910156 L 353.222656 208.910156 L 351.644531 211.105469 L 353.34375 213.574219 L 352.390625 213.574219 L 351.453125 212.125 L 351.203125 211.734375 L 350.003906 213.574219 Z M 354.128906 208.085938 L 354.128906 207.175781 L 354.902344 207.175781 L 354.902344 208.085938 Z M 354.128906 213.574219 L 354.128906 208.910156 L 354.902344 208.910156 L 354.902344 213.574219 Z M 355.726563 212.167969 L 356.496094 212.042969 C 356.539063 212.355469 356.65625 212.597656 356.855469 212.765625 C 357.050781 212.933594 357.328125 213.015625 357.683594 213.015625 C 358.039063 213.015625 358.304688 212.941406 358.476563 212.792969 C 358.652344 212.644531 358.738281 212.472656 358.738281 212.273438 C 358.738281 212.09375 358.660156 211.953125 358.507813 211.851563 C 358.402344 211.78125 358.136719 211.691406 357.714844 211.582031 C 357.140625 211.433594 356.746094 211.308594 356.527344 211.203125 C 356.308594 211.09375 356.140625 210.945313 356.027344 210.757813 C 355.914063 210.570313 355.855469 210.359375 355.855469 210.132813 C 355.855469 209.921875 355.902344 209.730469 355.996094 209.554688 C 356.089844 209.375 356.21875 209.226563 356.378906 209.109375 C 356.5 209.019531 356.664063 208.945313 356.871094 208.882813 C 357.082031 208.816406 357.304688 208.785156 357.542969 208.785156 C 357.902344 208.785156 358.21875 208.839844 358.492188 208.945313 C 358.761719 209.050781 358.964844 209.191406 359.09375 209.371094 C 359.222656 209.550781 359.3125 209.792969 359.363281 210.09375 L 358.605469 210.199219 C 358.570313 209.960938 358.46875 209.773438 358.300781 209.636719 C 358.136719 209.503906 357.902344 209.433594 357.601563 209.433594 C 357.242188 209.433594 356.988281 209.496094 356.835938 209.617188 C 356.683594 209.738281 356.605469 209.875 356.605469 210.039063 C 356.605469 210.140625 356.636719 210.234375 356.703125 210.316406 C 356.765625 210.398438 356.863281 210.46875 357 210.527344 C 357.078125 210.554688 357.308594 210.625 357.6875 210.730469 C 358.238281 210.878906 358.621094 211 358.835938 211.097656 C 359.054688 211.191406 359.226563 211.328125 359.347656 211.511719 C 359.472656 211.691406 359.53125 211.917969 359.53125 212.1875 C 359.53125 212.453125 359.457031 212.699219 359.308594 212.933594 C 359.15625 213.167969 358.9375 213.347656 358.652344 213.472656 C 358.367188 213.601563 358.046875 213.664063 357.6875 213.664063 C 357.089844 213.664063 356.636719 213.539063 356.324219 213.285156 C 356.011719 213.035156 355.8125 212.660156 355.726563 212.167969 Z M 355.726563 212.167969 "/>
<path style="fill:none;stroke-width:2;stroke-linecap:butt;stroke-linejoin:miter;stroke:rgb(99.996948%,99.996948%,99.996948%);stroke-opacity:1;stroke-miterlimit:3.25;" d="M 230.996094 222.871094 L 233.320313 222.871094 " transform="matrix(1,0,0,1,-66,-5)"/>
<path style="fill:none;stroke-width:2;stroke-linecap:butt;stroke-linejoin:miter;stroke:rgb(99.996948%,99.996948%,99.996948%);stroke-opacity:1;stroke-miterlimit:3.25;" d="M 230.996094 215.574219 L 234.871094 215.574219 " transform="matrix(1,0,0,1,-66,-5)"/>
<path style="fill:none;stroke-width:2;stroke-linecap:butt;stroke-linejoin:miter;stroke:rgb(99.996948%,99.996948%,99.996948%);stroke-opacity:1;stroke-miterlimit:3.25;" d="M 230.996094 208.277344 L 233.320313 208.277344 " transform="matrix(1,0,0,1,-66,-5)"/>
<path style="fill:none;stroke-width:2;stroke-linecap:butt;stroke-linejoin:miter;stroke:rgb(99.996948%,99.996948%,99.996948%);stroke-opacity:1;stroke-miterlimit:3.25;" d="M 230.996094 200.980469 L 233.320313 200.980469 " transform="matrix(1,0,0,1,-66,-5)"/>
<path style="fill:none;stroke-width:2;stroke-linecap:butt;stroke-linejoin:miter;stroke:rgb(99.996948%,99.996948%,99.996948%);stroke-opacity:1;stroke-miterlimit:3.25;" d="M 230.996094 193.683594 L 233.320313 193.683594 " transform="matrix(1,0,0,1,-66,-5)"/>
<path style="fill:none;stroke-width:2;stroke-linecap:butt;stroke-linejoin:miter;stroke:rgb(99.996948%,99.996948%,99.996948%);stroke-opacity:1;stroke-miterlimit:3.25;" d="M 230.996094 186.386719 L 233.320313 186.386719 " transform="matrix(1,0,0,1,-66,-5)"/>
<path style="fill:none;stroke-width:2;stroke-linecap:butt;stroke-linejoin:miter;stroke:rgb(99.996948%,99.996948%,99.996948%);stroke-opacity:1;stroke-miterlimit:3.25;" d="M 230.996094 179.085938 L 234.871094 179.085938 " transform="matrix(1,0,0,1,-66,-5)"/>
<path style=" stroke:none;fill-rule:evenodd;fill:rgb(99.996948%,99.996948%,99.996948%);fill-opacity:1;" d="M 157.316406 175.378906 L 158.132813 175.308594 C 158.191406 175.710938 158.332031 176.015625 158.550781 176.222656 C 158.769531 176.425781 159.035156 176.527344 159.347656 176.527344 C 159.71875 176.527344 160.035156 176.382813 160.292969 176.097656 C 160.550781 175.808594 160.679688 175.425781 160.679688 174.949219 C 160.679688 174.496094 160.554688 174.140625 160.308594 173.878906 C 160.058594 173.617188 159.734375 173.488281 159.332031 173.488281 C 159.082031 173.488281 158.855469 173.546875 158.65625 173.660156 C 158.457031 173.777344 158.296875 173.929688 158.183594 174.113281 L 157.453125 174.015625 L 158.066406 170.699219 L 161.222656 170.699219 L 161.222656 171.453125 L 158.6875 171.453125 L 158.347656 173.195313 C 158.726563 172.921875 159.125 172.789063 159.539063 172.789063 C 160.089844 172.789063 160.554688 172.984375 160.933594 173.375 C 161.3125 173.765625 161.503906 174.265625 161.503906 174.878906 C 161.503906 175.464844 161.335938 175.96875 161.003906 176.394531 C 160.597656 176.917969 160.046875 177.175781 159.347656 177.175781 C 158.773438 177.175781 158.300781 177.011719 157.9375 176.683594 C 157.574219 176.355469 157.367188 175.917969 157.316406 175.378906 Z M 157.316406 175.378906 "/>
<path style="fill:none;stroke-width:2;stroke-linecap:butt;stroke-linejoin:miter;stroke:rgb(99.996948%,99.996948%,99.996948%);stroke-opacity:1;stroke-miterlimit:3.25;" d="M 230.996094 171.789063 L 233.320313 171.789063 " transform="matrix(1,0,0,1,-66,-5)"/>
<path style="fill:none;stroke-width:2;stroke-linecap:butt;stroke-linejoin:miter;stroke:rgb(99.996948%,99.996948%,99.996948%);stroke-opacity:1;stroke-miterlimit:3.25;" d="M 230.996094 164.492188 L 233.320313 164.492188 " transform="matrix(1,0,0,1,-66,-5)"/>
<path style="fill:none;stroke-width:2;stroke-linecap:butt;stroke-linejoin:miter;stroke:rgb(99.996948%,99.996948%,99.996948%);stroke-opacity:1;stroke-miterlimit:3.25;" d="M 230.996094 157.195313 L 233.320313 157.195313 " transform="matrix(1,0,0,1,-66,-5)"/>
<path style="fill:none;stroke-width:2;stroke-linecap:butt;stroke-linejoin:miter;stroke:rgb(99.996948%,99.996948%,99.996948%);stroke-opacity:1;stroke-miterlimit:3.25;" d="M 230.996094 149.898438 L 233.320313 149.898438 " transform="matrix(1,0,0,1,-66,-5)"/>
<path style="fill:none;stroke-width:2;stroke-linecap:butt;stroke-linejoin:miter;stroke:rgb(99.996948%,99.996948%,99.996948%);stroke-opacity:1;stroke-miterlimit:3.25;" d="M 230.996094 142.597656 L 234.871094 142.597656 " transform="matrix(1,0,0,1,-66,-5)"/>
<path style=" stroke:none;fill-rule:evenodd;fill:rgb(99.996948%,99.996948%,99.996948%);fill-opacity:1;" d="M 155.28125 140.597656 L 154.503906 140.597656 L 154.503906 135.5625 C 154.316406 135.742188 154.074219 135.925781 153.769531 136.109375 C 153.46875 136.289063 153.195313 136.425781 152.957031 136.515625 L 152.957031 135.75 C 153.386719 135.542969 153.765625 135.292969 154.089844 134.996094 C 154.414063 134.699219 154.644531 134.414063 154.78125 134.136719 L 155.28125 134.136719 Z M 157.347656 137.40625 C 157.347656 136.644531 157.425781 136.035156 157.578125 135.570313 C 157.734375 135.105469 157.964844 134.75 158.265625 134.496094 C 158.570313 134.246094 158.953125 134.121094 159.410156 134.121094 C 159.753906 134.121094 160.050781 134.1875 160.304688 134.328125 C 160.5625 134.464844 160.773438 134.667969 160.941406 134.929688 C 161.105469 135.191406 161.238281 135.507813 161.332031 135.886719 C 161.425781 136.261719 161.476563 136.769531 161.476563 137.40625 C 161.476563 138.160156 161.398438 138.769531 161.246094 139.234375 C 161.09375 139.699219 160.863281 140.054688 160.5625 140.308594 C 160.257813 140.5625 159.875 140.6875 159.410156 140.6875 C 158.800781 140.6875 158.324219 140.464844 157.976563 140.019531 C 157.558594 139.488281 157.347656 138.613281 157.347656 137.40625 Z M 158.144531 137.40625 C 158.144531 138.460938 158.269531 139.164063 158.511719 139.515625 C 158.753906 139.863281 159.054688 140.039063 159.410156 140.039063 C 159.769531 140.039063 160.070313 139.863281 160.3125 139.515625 C 160.558594 139.164063 160.679688 138.460938 160.679688 137.40625 C 160.679688 136.347656 160.558594 135.644531 160.3125 135.296875 C 160.070313 134.945313 159.765625 134.773438 159.402344 134.773438 C 159.046875 134.773438 158.761719 134.925781 158.546875 135.234375 C 158.28125 135.625 158.144531 136.351563 158.144531 137.40625 Z M 158.144531 137.40625 "/>
<path style="fill:none;stroke-width:2;stroke-linecap:butt;stroke-linejoin:miter;stroke:rgb(99.996948%,99.996948%,99.996948%);stroke-opacity:1;stroke-miterlimit:3.25;" d="M 230.996094 135.300781 L 233.320313 135.300781 " transform="matrix(1,0,0,1,-66,-5)"/>
<path style="fill:none;stroke-width:2;stroke-linecap:butt;stroke-linejoin:miter;stroke:rgb(99.996948%,99.996948%,99.996948%);stroke-opacity:1;stroke-miterlimit:3.25;" d="M 230.996094 128.003906 L 233.320313 128.003906 " transform="matrix(1,0,0,1,-66,-5)"/>
<path style="fill:none;stroke-width:2;stroke-linecap:butt;stroke-linejoin:miter;stroke:rgb(99.996948%,99.996948%,99.996948%);stroke-opacity:1;stroke-miterlimit:3.25;" d="M 230.996094 120.707031 L 233.320313 120.707031 " transform="matrix(1,0,0,1,-66,-5)"/>
<path style="fill:none;stroke-width:2;stroke-linecap:butt;stroke-linejoin:miter;stroke:rgb(99.996948%,99.996948%,99.996948%);stroke-opacity:1;stroke-miterlimit:3.25;" d="M 230.996094 113.410156 L 233.320313 113.410156 " transform="matrix(1,0,0,1,-66,-5)"/>
<path style="fill:none;stroke-width:2;stroke-linecap:butt;stroke-linejoin:miter;stroke:rgb(99.996948%,99.996948%,99.996948%);stroke-opacity:1;stroke-miterlimit:3.25;" d="M 230.996094 106.113281 L 234.871094 106.113281 " transform="matrix(1,0,0,1,-66,-5)"/>
<path style=" stroke:none;fill-rule:evenodd;fill:rgb(99.996948%,99.996948%,99.996948%);fill-opacity:1;" d="M 155.28125 104.113281 L 154.503906 104.113281 L 154.503906 99.074219 C 154.316406 99.257813 154.074219 99.4375 153.769531 99.621094 C 153.46875 99.800781 153.195313 99.9375 152.957031 100.027344 L 152.957031 99.261719 C 153.386719 99.054688 153.765625 98.804688 154.089844 98.507813 C 154.414063 98.210938 154.644531 97.925781 154.78125 97.648438 L 155.28125 97.648438 Z M 157.316406 102.402344 L 158.128906 102.332031 C 158.1875 102.734375 158.328125 103.039063 158.546875 103.246094 C 158.769531 103.449219 159.035156 103.550781 159.34375 103.550781 C 159.71875 103.550781 160.03125 103.40625 160.289063 103.121094 C 160.550781 102.832031 160.679688 102.449219 160.679688 101.972656 C 160.679688 101.523438 160.554688 101.164063 160.304688 100.902344 C 160.058594 100.640625 159.734375 100.511719 159.332031 100.511719 C 159.082031 100.511719 158.855469 100.570313 158.652344 100.6875 C 158.453125 100.800781 158.296875 100.953125 158.179688 101.136719 L 157.453125 101.039063 L 158.066406 97.722656 L 161.21875 97.722656 L 161.21875 98.476563 L 158.683594 98.476563 L 158.34375 100.21875 C 158.722656 99.949219 159.121094 99.8125 159.539063 99.8125 C 160.089844 99.8125 160.554688 100.007813 160.933594 100.398438 C 161.3125 100.789063 161.5 101.289063 161.5 101.902344 C 161.5 102.488281 161.335938 102.992188 161.003906 103.417969 C 160.597656 103.941406 160.042969 104.203125 159.34375 104.203125 C 158.769531 104.203125 158.300781 104.035156 157.9375 103.707031 C 157.574219 103.378906 157.367188 102.941406 157.316406 102.402344 Z M 157.316406 102.402344 "/>
<path style="fill:none;stroke-width:2;stroke-linecap:butt;stroke-linejoin:miter;stroke:rgb(99.996948%,99.996948%,99.996948%);stroke-opacity:1;stroke-miterlimit:3.25;" d="M 230.996094 98.8125 L 233.320313 98.8125 " transform="matrix(1,0,0,1,-66,-5)"/>
<path style="fill:none;stroke-width:2;stroke-linecap:butt;stroke-linejoin:miter;stroke:rgb(99.996948%,99.996948%,99.996948%);stroke-opacity:1;stroke-miterlimit:3.25;" d="M 230.996094 91.515625 L 233.320313 91.515625 " transform="matrix(1,0,0,1,-66,-5)"/>
<path style="fill:none;stroke-width:2;stroke-linecap:butt;stroke-linejoin:miter;stroke:rgb(99.996948%,99.996948%,99.996948%);stroke-opacity:1;stroke-miterlimit:3.25;" d="M 230.996094 84.21875 L 233.320313 84.21875 " transform="matrix(1,0,0,1,-66,-5)"/>
<path style="fill:none;stroke-width:2;stroke-linecap:butt;stroke-linejoin:miter;stroke:rgb(99.996948%,99.996948%,99.996948%);stroke-opacity:1;stroke-miterlimit:3.25;" d="M 230.996094 76.921875 L 233.320313 76.921875 " transform="matrix(1,0,0,1,-66,-5)"/>
<path style="fill:none;stroke-width:2;stroke-linecap:butt;stroke-linejoin:miter;stroke:rgb(99.996948%,99.996948%,99.996948%);stroke-opacity:1;stroke-miterlimit:3.25;" d="M 230.996094 69.625 L 234.871094 69.625 " transform="matrix(1,0,0,1,-66,-5)"/>
<path style=" stroke:none;fill-rule:evenodd;fill:rgb(99.996948%,99.996948%,99.996948%);fill-opacity:1;" d="M 156.429688 66.863281 L 156.429688 67.625 L 152.253906 67.625 C 152.253906 67.433594 152.289063 67.25 152.359375 67.074219 C 152.46875 66.78125 152.644531 66.496094 152.886719 66.214844 C 153.132813 65.933594 153.46875 65.609375 153.898438 65.238281 C 154.5625 64.664063 155.011719 64.207031 155.246094 63.871094 C 155.480469 63.535156 155.597656 63.214844 155.597656 62.917969 C 155.597656 62.601563 155.492188 62.335938 155.277344 62.121094 C 155.066406 61.90625 154.785156 61.796875 154.441406 61.796875 C 154.078125 61.796875 153.789063 61.914063 153.570313 62.140625 C 153.355469 62.371094 153.246094 62.6875 153.246094 63.09375 L 152.414063 63.007813 C 152.464844 62.402344 152.667969 61.9375 153.023438 61.621094 C 153.375 61.304688 153.851563 61.144531 154.445313 61.144531 C 155.046875 61.144531 155.519531 61.316406 155.871094 61.660156 C 156.21875 62.003906 156.394531 62.429688 156.394531 62.933594 C 156.394531 63.195313 156.34375 63.449219 156.242188 63.695313 C 156.140625 63.945313 155.96875 64.210938 155.730469 64.484375 C 155.492188 64.761719 155.101563 65.140625 154.5625 65.621094 C 154.109375 66.019531 153.820313 66.292969 153.691406 66.433594 C 153.5625 66.578125 153.457031 66.71875 153.375 66.863281 Z M 157.347656 64.429688 C 157.347656 63.667969 157.425781 63.058594 157.578125 62.59375 C 157.734375 62.128906 157.964844 61.773438 158.265625 61.523438 C 158.570313 61.269531 158.953125 61.144531 159.410156 61.144531 C 159.753906 61.144531 160.050781 61.210938 160.304688 61.351563 C 160.5625 61.492188 160.773438 61.691406 160.941406 61.953125 C 161.105469 62.214844 161.238281 62.53125 161.332031 62.910156 C 161.425781 63.285156 161.476563 63.792969 161.476563 64.429688 C 161.476563 65.183594 161.398438 65.796875 161.246094 66.257813 C 161.09375 66.722656 160.863281 67.082031 160.5625 67.332031 C 160.257813 67.585938 159.875 67.714844 159.410156 67.714844 C 158.800781 67.714844 158.324219 67.492188 157.976563 67.046875 C 157.558594 66.511719 157.347656 65.640625 157.347656 64.429688 Z M 158.144531 64.429688 C 158.144531 65.488281 158.269531 66.191406 158.511719 66.539063 C 158.753906 66.890625 159.054688 67.0625 159.410156 67.0625 C 159.769531 67.0625 160.070313 66.886719 160.3125 66.539063 C 160.558594 66.1875 160.679688 65.484375 160.679688 64.429688 C 160.679688 63.371094 160.558594 62.667969 160.3125 62.320313 C 160.070313 61.972656 159.765625 61.796875 159.402344 61.796875 C 159.046875 61.796875 158.761719 61.949219 158.546875 62.257813 C 158.28125 62.652344 158.144531 63.375 158.144531 64.429688 Z M 158.144531 64.429688 "/>
<path style="fill:none;stroke-width:2;stroke-linecap:butt;stroke-linejoin:miter;stroke:rgb(99.996948%,99.996948%,99.996948%);stroke-opacity:1;stroke-miterlimit:3.25;" d="M 230.996094 62.324219 L 233.320313 62.324219 " transform="matrix(1,0,0,1,-66,-5)"/>
<path style="fill:none;stroke-width:2;stroke-linecap:butt;stroke-linejoin:miter;stroke:rgb(99.996948%,99.996948%,99.996948%);stroke-opacity:1;stroke-miterlimit:3.25;" d="M 230.996094 55.027344 L 233.320313 55.027344 " transform="matrix(1,0,0,1,-66,-5)"/>
<path style="fill:none;stroke-width:2;stroke-linecap:butt;stroke-linejoin:miter;stroke:rgb(99.996948%,99.996948%,99.996948%);stroke-opacity:1;stroke-miterlimit:3.25;" d="M 230.996094 47.730469 L 233.320313 47.730469 " transform="matrix(1,0,0,1,-66,-5)"/>
<path style="fill:none;stroke-width:2;stroke-linecap:butt;stroke-linejoin:miter;stroke:rgb(99.996948%,99.996948%,99.996948%);stroke-opacity:1;stroke-miterlimit:3.25;" d="M 230.996094 40.433594 L 233.320313 40.433594 " transform="matrix(1,0,0,1,-66,-5)"/>
<path style="fill:none;stroke-width:2;stroke-linecap:butt;stroke-linejoin:miter;stroke:rgb(99.996948%,99.996948%,99.996948%);stroke-opacity:1;stroke-miterlimit:3.25;" d="M 230.996094 33.136719 L 234.871094 33.136719 " transform="matrix(1,0,0,1,-66,-5)"/>
<path style=" stroke:none;fill-rule:evenodd;fill:rgb(99.996948%,99.996948%,99.996948%);fill-opacity:1;" d="M 156.429688 30.375 L 156.429688 31.136719 L 152.253906 31.136719 C 152.253906 30.945313 152.289063 30.761719 152.359375 30.585938 C 152.46875 30.296875 152.644531 30.007813 152.886719 29.726563 C 153.132813 29.445313 153.46875 29.121094 153.898438 28.75 C 154.5625 28.175781 155.011719 27.71875 155.246094 27.382813 C 155.480469 27.046875 155.597656 26.730469 155.597656 26.429688 C 155.597656 26.113281 155.492188 25.851563 155.277344 25.632813 C 155.066406 25.417969 154.785156 25.308594 154.441406 25.308594 C 154.078125 25.308594 153.789063 25.425781 153.570313 25.652344 C 153.355469 25.882813 153.246094 26.199219 153.246094 26.605469 L 152.414063 26.523438 C 152.464844 25.914063 152.667969 25.453125 153.023438 25.132813 C 153.375 24.816406 153.851563 24.65625 154.445313 24.65625 C 155.046875 24.65625 155.519531 24.828125 155.871094 25.171875 C 156.21875 25.515625 156.394531 25.941406 156.394531 26.445313 C 156.394531 26.707031 156.34375 26.960938 156.242188 27.210938 C 156.140625 27.457031 155.96875 27.722656 155.730469 28 C 155.492188 28.273438 155.101563 28.652344 154.5625 29.132813 C 154.109375 29.535156 153.820313 29.804688 153.691406 29.945313 C 153.5625 30.089844 153.457031 30.234375 153.375 30.375 Z M 157.316406 29.425781 L 158.128906 29.355469 C 158.1875 29.761719 158.328125 30.066406 158.546875 30.269531 C 158.769531 30.472656 159.035156 30.574219 159.34375 30.574219 C 159.71875 30.574219 160.03125 30.433594 160.289063 30.144531 C 160.550781 29.855469 160.679688 29.472656 160.679688 28.996094 C 160.679688 28.546875 160.554688 28.1875 160.304688 27.929688 C 160.058594 27.667969 159.734375 27.535156 159.332031 27.535156 C 159.082031 27.535156 158.855469 27.59375 158.652344 27.710938 C 158.453125 27.824219 158.296875 27.976563 158.179688 28.160156 L 157.453125 28.0625 L 158.066406 24.746094 L 161.21875 24.746094 L 161.21875 25.5 L 158.683594 25.5 L 158.34375 27.242188 C 158.722656 26.972656 159.121094 26.835938 159.539063 26.835938 C 160.089844 26.835938 160.554688 27.03125 160.933594 27.421875 C 161.3125 27.8125 161.5 28.316406 161.5 28.925781 C 161.5 29.511719 161.335938 30.015625 161.003906 30.441406 C 160.597656 30.964844 160.042969 31.226563 159.34375 31.226563 C 158.769531 31.226563 158.300781 31.0625 157.9375 30.730469 C 157.574219 30.402344 157.367188 29.96875 157.316406 29.425781 Z M 157.316406 29.425781 "/>
<path style="fill:none;stroke-width:2;stroke-linecap:butt;stroke-linejoin:miter;stroke:rgb(99.996948%,99.996948%,99.996948%);stroke-opacity:1;stroke-miterlimit:3.25;" d="M 230.996094 25.839844 L 233.320313 25.839844 " transform="matrix(1,0,0,1,-66,-5)"/>
<path style="fill:none;stroke-width:2;stroke-linecap:butt;stroke-linejoin:miter;stroke:rgb(99.996948%,99.996948%,99.996948%);stroke-opacity:1;stroke-miterlimit:3.25;" d="M 230.996094 225.710938 L 230.996094 23 " transform="matrix(1,0,0,1,-66,-5)"/>
<path style=" stroke:none;fill-rule:evenodd;fill:rgb(99.996948%,99.996948%,99.996948%);fill-opacity:1;" d="M 139.132813 8.320313 L 139.246094 9.019531 C 139.027344 9.066406 138.835938 9.089844 138.664063 9.089844 C 138.382813 9.089844 138.167969 9.042969 138.011719 8.953125 C 137.859375 8.863281 137.75 8.742188 137.6875 8.597656 C 137.625 8.449219 137.59375 8.132813 137.59375 7.65625 L 137.59375 4.949219 L 137.015625 4.949219 L 137.015625 4.335938 L 137.59375 4.335938 L 137.59375 3.179688 L 138.363281 2.707031 L 138.363281 4.335938 L 139.132813 4.335938 L 139.132813 4.949219 L 138.363281 4.949219 L 138.363281 7.699219 C 138.363281 7.925781 138.378906 8.074219 138.40625 8.140625 C 138.429688 8.203125 138.476563 8.253906 138.535156 8.292969 C 138.597656 8.332031 138.6875 8.351563 138.796875 8.351563 C 138.882813 8.351563 138.996094 8.339844 139.132813 8.320313 Z M 139.867188 9 L 139.867188 2.5625 L 140.644531 2.5625 L 140.644531 4.871094 C 141.007813 4.445313 141.46875 4.230469 142.023438 4.230469 C 142.363281 4.230469 142.660156 4.296875 142.910156 4.433594 C 143.164063 4.570313 143.34375 4.757813 143.449219 5 C 143.558594 5.238281 143.613281 5.585938 143.613281 6.042969 L 143.613281 9 L 142.839844 9 L 142.839844 6.042969 C 142.839844 5.648438 142.753906 5.359375 142.582031 5.179688 C 142.414063 5 142.175781 4.910156 141.863281 4.910156 C 141.632813 4.910156 141.414063 4.972656 141.210938 5.09375 C 141.007813 5.214844 140.859375 5.378906 140.773438 5.589844 C 140.6875 5.796875 140.644531 6.082031 140.644531 6.449219 L 140.644531 9 Z M 144.960938 3.511719 L 144.960938 2.601563 L 145.738281 2.601563 L 145.738281 3.511719 Z M 144.960938 9 L 144.960938 4.335938 L 145.738281 4.335938 L 145.738281 9 Z M 146.5625 7.589844 L 147.328125 7.46875 C 147.371094 7.78125 147.488281 8.023438 147.6875 8.191406 C 147.886719 8.355469 148.160156 8.441406 148.515625 8.441406 C 148.871094 8.441406 149.136719 8.367188 149.308594 8.21875 C 149.484375 8.070313 149.570313 7.894531 149.570313 7.695313 C 149.570313 7.515625 149.492188 7.375 149.339844 7.273438 C 149.234375 7.203125 148.96875 7.113281 148.546875 7.007813 C 147.976563 6.859375 147.578125 6.734375 147.359375 6.625 C 147.140625 6.519531 146.972656 6.371094 146.859375 6.183594 C 146.746094 5.992188 146.691406 5.785156 146.691406 5.554688 C 146.691406 5.347656 146.738281 5.15625 146.828125 4.976563 C 146.921875 4.800781 147.050781 4.652344 147.210938 4.535156 C 147.332031 4.445313 147.496094 4.367188 147.707031 4.304688 C 147.914063 4.242188 148.136719 4.210938 148.375 4.210938 C 148.734375 4.210938 149.050781 4.261719 149.324219 4.371094 C 149.597656 4.472656 149.796875 4.617188 149.925781 4.796875 C 150.054688 4.976563 150.144531 5.21875 150.195313 5.519531 L 149.4375 5.625 C 149.402344 5.386719 149.300781 5.199219 149.136719 5.0625 C 148.96875 4.925781 148.738281 4.859375 148.433594 4.859375 C 148.074219 4.859375 147.820313 4.921875 147.667969 5.042969 C 147.515625 5.160156 147.441406 5.300781 147.441406 5.460938 C 147.441406 5.566406 147.472656 5.65625 147.535156 5.742188 C 147.597656 5.824219 147.699219 5.894531 147.832031 5.953125 C 147.910156 5.980469 148.140625 6.046875 148.519531 6.152344 C 149.070313 6.304688 149.453125 6.425781 149.667969 6.519531 C 149.886719 6.617188 150.058594 6.753906 150.179688 6.9375 C 150.304688 7.117188 150.367188 7.34375 150.367188 7.613281 C 150.367188 7.875 150.289063 8.125 150.140625 8.359375 C 149.988281 8.589844 149.769531 8.769531 149.484375 8.898438 C 149.199219 9.027344 148.878906 9.089844 148.519531 9.089844 C 147.921875 9.089844 147.46875 8.964844 147.15625 8.710938 C 146.84375 8.460938 146.648438 8.085938 146.5625 7.589844 Z M 146.5625 7.589844 "/>
<path style=" stroke:none;fill-rule:evenodd;fill:rgb(99.996948%,99.996948%,99.996948%);fill-opacity:1;" d="M 153.960938 3.511719 L 153.960938 2.601563 L 154.738281 2.601563 L 154.738281 3.511719 Z M 153.960938 9 L 153.960938 4.335938 L 154.738281 4.335938 L 154.738281 9 Z M 155.5625 7.589844 L 156.328125 7.46875 C 156.371094 7.78125 156.488281 8.023438 156.6875 8.191406 C 156.886719 8.355469 157.160156 8.441406 157.515625 8.441406 C 157.871094 8.441406 158.136719 8.367188 158.308594 8.21875 C 158.484375 8.070313 158.570313 7.894531 158.570313 7.695313 C 158.570313 7.515625 158.492188 7.375 158.339844 7.273438 C 158.234375 7.203125 157.96875 7.113281 157.546875 7.007813 C 156.976563 6.859375 156.578125 6.734375 156.359375 6.625 C 156.140625 6.519531 155.972656 6.371094 155.859375 6.183594 C 155.746094 5.992188 155.691406 5.785156 155.691406 5.554688 C 155.691406 5.347656 155.738281 5.15625 155.828125 4.976563 C 155.921875 4.800781 156.050781 4.652344 156.210938 4.535156 C 156.332031 4.445313 156.496094 4.367188 156.707031 4.304688 C 156.914063 4.242188 157.136719 4.210938 157.375 4.210938 C 157.734375 4.210938 158.050781 4.261719 158.324219 4.371094 C 158.597656 4.472656 158.796875 4.617188 158.925781 4.796875 C 159.054688 4.976563 159.144531 5.21875 159.195313 5.519531 L 158.4375 5.625 C 158.402344 5.386719 158.300781 5.199219 158.136719 5.0625 C 157.96875 4.925781 157.738281 4.859375 157.433594 4.859375 C 157.074219 4.859375 156.820313 4.921875 156.667969 5.042969 C 156.515625 5.160156 156.441406 5.300781 156.441406 5.460938 C 156.441406 5.566406 156.472656 5.65625 156.535156 5.742188 C 156.597656 5.824219 156.699219 5.894531 156.832031 5.953125 C 156.910156 5.980469 157.140625 6.046875 157.519531 6.152344 C 158.070313 6.304688 158.453125 6.425781 158.667969 6.519531 C 158.886719 6.617188 159.058594 6.753906 159.179688 6.9375 C 159.304688 7.117188 159.367188 7.34375 159.367188 7.613281 C 159.367188 7.875 159.289063 8.125 159.140625 8.359375 C 158.988281 8.589844 158.769531 8.769531 158.484375 8.898438 C 158.199219 9.027344 157.878906 9.089844 157.519531 9.089844 C 156.921875 9.089844 156.46875 8.964844 156.15625 8.710938 C 155.84375 8.460938 155.648438 8.085938 155.5625 7.589844 Z M 155.5625 7.589844 "/>
<path style=" stroke:none;fill-rule:evenodd;fill:rgb(99.996948%,99.996948%,99.996948%);fill-opacity:1;" d="M 163.089844 9 L 163.089844 4.949219 L 162.421875 4.949219 L 162.421875 4.335938 L 163.089844 4.335938 L 163.089844 3.832031 C 163.089844 3.511719 163.117188 3.277344 163.171875 3.125 C 163.25 2.917969 163.382813 2.75 163.570313 2.621094 C 163.761719 2.496094 164.027344 2.429688 164.367188 2.429688 C 164.585938 2.429688 164.832031 2.457031 165.097656 2.507813 L 164.980469 3.199219 C 164.820313 3.171875 164.664063 3.15625 164.519531 3.15625 C 164.28125 3.15625 164.109375 3.207031 164.011719 3.3125 C 163.910156 3.414063 163.863281 3.609375 163.863281 3.898438 L 163.863281 4.335938 L 164.769531 4.335938 L 164.769531 4.949219 L 163.863281 4.949219 L 163.863281 9 Z M 163.089844 9 "/>
<path style=" stroke:none;fill-rule:evenodd;fill:rgb(99.996948%,99.996948%,99.996948%);fill-opacity:1;" d="M 167.203125 10.800781 L 165.453125 10.800781 L 165.453125 2.585938 L 167.203125 2.585938 L 167.203125 3.238281 L 166.246094 3.238281 L 166.246094 10.140625 L 167.203125 10.140625 Z M 167.203125 10.800781 "/>
<path style=" stroke:none;fill-rule:evenodd;fill:rgb(99.996948%,99.996948%,99.996948%);fill-opacity:1;" d="M 167.382813 9 L 169.054688 6.574219 L 167.507813 4.335938 L 168.476563 4.335938 L 169.179688 5.429688 C 169.3125 5.636719 169.417969 5.8125 169.496094 5.953125 C 169.625 5.757813 169.738281 5.585938 169.847656 5.4375 L 170.617188 4.335938 L 171.542969 4.335938 L 169.960938 6.53125 L 171.664063 9 L 170.710938 9 L 169.773438 7.550781 L 169.523438 7.160156 L 168.320313 9 Z M 167.382813 9 "/>
<path style=" stroke:none;fill-rule:evenodd;fill:rgb(99.996948%,99.996948%,99.996948%);fill-opacity:1;" d="M 173.691406 10.800781 L 171.945313 10.800781 L 171.945313 10.140625 L 172.898438 10.140625 L 172.898438 3.238281 L 171.945313 3.238281 L 171.945313 2.585938 L 173.691406 2.585938 Z M 173.691406 10.800781 "/>
<path style=" stroke:none;fill-rule:evenodd;fill:rgb(99.996948%,99.996948%,99.996948%);fill-opacity:1;" d="M 181.617188 6.046875 L 177.351563 6.046875 L 177.351563 5.308594 L 181.617188 5.308594 Z M 181.617188 8.011719 L 177.351563 8.011719 L 177.351563 7.273438 L 181.617188 7.273438 Z M 181.617188 8.011719 "/>
<path style=" stroke:none;fill-rule:evenodd;fill:rgb(99.996948%,99.996948%,99.996948%);fill-opacity:1;" d="M 184.542969 9 L 186.578125 6.632813 L 185.410156 4.339844 L 186.289063 4.339844 L 186.683594 5.167969 C 186.832031 5.480469 186.964844 5.777344 187.082031 6.058594 L 188.421875 4.339844 L 189.394531 4.339844 L 187.433594 6.695313 L 188.613281 9 L 187.738281 9 L 187.269531 8.054688 C 187.171875 7.855469 187.054688 7.605469 186.929688 7.308594 L 185.542969 9 Z M 184.542969 9 "/>
<path style=" stroke:none;fill-rule:evenodd;fill:rgb(99.996948%,99.996948%,99.996948%);fill-opacity:1;" d="M 192.261719 4.859375 L 192.261719 5.398438 L 189.296875 5.398438 C 189.296875 5.265625 189.320313 5.132813 189.367188 5.007813 C 189.449219 4.804688 189.574219 4.601563 189.746094 4.402344 C 189.917969 4.199219 190.15625 3.96875 190.460938 3.707031 C 190.933594 3.296875 191.253906 2.972656 191.421875 2.734375 C 191.585938 2.496094 191.671875 2.269531 191.671875 2.058594 C 191.671875 1.835938 191.59375 1.648438 191.441406 1.496094 C 191.289063 1.339844 191.09375 1.265625 190.851563 1.265625 C 190.589844 1.265625 190.386719 1.34375 190.230469 1.507813 C 190.078125 1.671875 190 1.894531 190 2.183594 L 189.40625 2.125 C 189.445313 1.691406 189.589844 1.363281 189.839844 1.140625 C 190.09375 0.914063 190.429688 0.800781 190.851563 0.800781 C 191.277344 0.800781 191.613281 0.921875 191.863281 1.164063 C 192.109375 1.410156 192.234375 1.710938 192.234375 2.070313 C 192.234375 2.253906 192.199219 2.433594 192.125 2.613281 C 192.054688 2.789063 191.933594 2.976563 191.761719 3.171875 C 191.59375 3.367188 191.316406 3.636719 190.933594 3.976563 C 190.613281 4.261719 190.40625 4.457031 190.316406 4.554688 C 190.226563 4.65625 190.148438 4.757813 190.089844 4.859375 Z M 192.261719 4.859375 "/>
</g>
</svg>
